#N canvas 194 -944 1264 797 12;
#X obj 315 17 r notesIn-\$1;
#X obj 36 17 inlet~ inL-\$1;
#X obj 146 17 inlet~ inR-\$1;
#X obj 485 16 r auxIn-\$1;
#X obj 584 16 r expIn-\$1;
#X obj 584 41 r fsIn-\$1;
#X obj 702 16 r ctrlIn-\$1;
#X obj 702 42 s ctrlOut-\$1;
#X obj 350 620 s notesOut-\$1;
#X obj 40 630 outlet~ outL-\$1;
#X obj 179 630 outlet~ outR-\$1;
#X obj 890 30 r arp_select-\$1;
#X obj 890 110 r global-bpm;
#X obj 890 70 r beat-clock;
#X obj 524 569 stripnote;
#X obj 360 210 note-tracker airport-notes-\$1;
#N canvas 481 -1106 1374 982 set-up-tape 1;
#X text 100 30 Pitch \, velocity \, note duration \, tape duration
\, tape number (starts from 0).;
#X obj 30 30 inlet;
#X obj 440 299 print ONE;
#X obj 440 270 r test-1;
#X obj 530 270 r test-2;
#X obj 530 299 print TWO;
#X obj 640 270 r test-3;
#X obj 640 299 print THREE;
#X obj 750 270 r test-4;
#X obj 750 299 print FOUR;
#X obj 850 270 r test-5;
#X obj 850 299 print FIVE;
#X obj 30 169 s;
#X obj 30 139 t b s;
#X obj 220 330 r beat-clock;
#X msg 30 110 tape-\$0-\$5;
#X obj 30 299 unpack f f f f f;
#X obj 39 381 pack f f;
#X text 120 700 Pitch \, velocity;
#X msg 39 700 set \$1 \$2;
#X msg 59 739;
#X obj 39 650 t a a;
#X text 370 700 Pitch \, note-off;
#X msg 299 700 set \$1 0;
#X msg 279 739;
#X obj 30 270 r tape-\$0-5;
#X obj 115 397 f;
#X text 160 397 Tape count \, initial value note duration;
#X obj 115 429 + 1;
#X obj 175 507 >;
#X obj 175 536 == 1;
#X obj 175 564 f 0;
#X obj 253 497 ==;
#X obj 100 330 t f f;
#X obj 253 526 == 1;
#X obj 253 555 t b;
#X obj 104 850 outlet;
#X obj 110 531 == 1;
#X obj 110 560 t b;
#X obj 110 502 == 0;
#X obj 220 359 bng 15 250 50 0 empty empty empty 17 7 0 10 #fcfcfc
#000000 #000000;
#X floatatom 70 460 5 0 0 0 - - -, f 5;
#X obj 115 458 t f f f f;
#X connect 1 0 15 0;
#X connect 3 0 2 0;
#X connect 4 0 5 0;
#X connect 6 0 7 0;
#X connect 8 0 9 0;
#X connect 10 0 11 0;
#X connect 13 0 12 0;
#X connect 13 1 12 1;
#X connect 14 0 40 0;
#X connect 15 0 13 0;
#X connect 16 0 17 0;
#X connect 16 1 17 1;
#X connect 16 2 33 0;
#X connect 16 3 29 1;
#X connect 17 0 21 0;
#X connect 19 0 20 0;
#X connect 20 0 36 0;
#X connect 21 0 19 0;
#X connect 21 1 23 0;
#X connect 23 0 24 0;
#X connect 24 0 36 0;
#X connect 25 0 16 0;
#X connect 26 0 28 0;
#X connect 28 0 42 0;
#X connect 28 0 41 0;
#X connect 29 0 30 0;
#X connect 30 0 31 0;
#X connect 31 0 26 1;
#X connect 32 0 34 0;
#X connect 33 0 26 0;
#X connect 33 1 32 1;
#X connect 34 0 35 0;
#X connect 35 0 24 0;
#X connect 37 0 38 0;
#X connect 38 0 20 0;
#X connect 39 0 37 0;
#X connect 40 0 26 0;
#X connect 42 0 39 0;
#X connect 42 1 29 0;
#X connect 42 2 32 0;
#X connect 42 3 26 1;
#X restore 360 240 pd set-up-tape;
#X connect 0 0 8 0;
#X connect 0 0 15 0;
#X connect 15 0 16 0;
#X connect 16 0 8 0;
