#N canvas 45 20 1267 850 12;
#X obj 315 17 r notesIn-\$1;
#X obj 36 17 inlet~ inL-\$1;
#X obj 146 17 inlet~ inR-\$1;
#X obj 485 16 r auxIn-\$1;
#X obj 584 16 r expIn-\$1;
#X obj 584 41 r fsIn-\$1;
#X obj 702 16 r ctrlIn-\$1;
#X obj 702 42 s ctrlOut-\$1;
#X obj 350 620 s notesOut-\$1;
#X obj 40 630 outlet~ outL-\$1;
#X obj 179 630 outlet~ outR-\$1;
#X obj 890 30 r arp_select-\$1;
#X obj 890 110 r global-bpm;
#X obj 890 70 r beat-clock;
#X obj 360 210 note-tracker airport-notes-\$1;
#N canvas 476 280 570 354 set-up-tape 1;
#X text 100 30 Pitch \, velocity \, note duration \, tape duration
\, tape number (starts from 0).;
#X obj 30 30 inlet;
#X obj 30 209 s;
#X obj 30 59 t a a;
#X msg 60 130 symbol tape-\$0-\$5;
#X connect 1 0 3 0;
#X connect 3 0 2 0;
#X connect 3 1 4 0;
#X connect 4 0 2 1;
#X restore 360 240 pd set-up-tape;
#X obj 450 321 tape 1 \$0;
#X obj 440 290 tape 0 \$0;
#X obj 460 352 tape 2 \$0;
#X obj 470 383 tape 3 \$0;
#X obj 480 416 tape 4 \$0;
#X obj 490 447 tape 5 \$0;
#X obj 791 293 bng 15 250 50 0 empty empty empty 17 7 0 10 #fcfcfc
#000000 #000000;
#X obj 942 364 s tape-\$0-0-stop;
#X obj 912 400 s tape-\$0-1-stop;
#X obj 882 438 s tape-\$0-2-stop;
#X obj 852 476 s tape-\$0-3-stop;
#X obj 822 512 s tape-\$0-4-stop;
#X obj 792 550 s tape-\$0-5-stop;
#X text 820 290 Bang to stop tapes (when testing);
#X obj 942 340 bng 15 250 50 0 empty empty empty 17 7 0 10 #fcfcfc
#000000 #000000;
#X obj 912 374 bng 15 250 50 0 empty empty empty 17 7 0 10 #fcfcfc
#000000 #000000;
#X obj 882 412 bng 15 250 50 0 empty empty empty 17 7 0 10 #fcfcfc
#000000 #000000;
#X obj 852 450 bng 15 250 50 0 empty empty empty 17 7 0 10 #fcfcfc
#000000 #000000;
#X obj 822 485 bng 15 250 50 0 empty empty empty 17 7 0 10 #fcfcfc
#000000 #000000;
#X obj 792 524 bng 15 250 50 0 empty empty empty 17 7 0 10 #fcfcfc
#000000 #000000;
#X connect 0 0 8 0;
#X connect 0 0 14 0;
#X connect 14 0 15 0;
#X connect 16 0 8 0;
#X connect 17 0 8 0;
#X connect 18 0 8 0;
#X connect 19 0 8 0;
#X connect 20 0 8 0;
#X connect 21 0 8 0;
#X connect 22 0 30 0;
#X connect 22 0 31 0;
#X connect 22 0 32 0;
#X connect 22 0 33 0;
#X connect 22 0 34 0;
#X connect 22 0 35 0;
#X connect 30 0 23 0;
#X connect 31 0 24 0;
#X connect 32 0 25 0;
#X connect 33 0 26 0;
#X connect 34 0 27 0;
#X connect 35 0 28 0;
