#N canvas 45 20 1267 850 12;
#X obj 315 17 r notesIn-\$1;
#X obj 36 17 inlet~ inL-\$1;
#X obj 146 17 inlet~ inR-\$1;
#X obj 485 16 r auxIn-\$1;
#X obj 584 16 r expIn-\$1;
#X obj 584 41 r fsIn-\$1;
#X obj 702 16 r ctrlIn-\$1;
#X obj 702 42 s ctrlOut-\$1;
#X obj 350 620 s notesOut-\$1;
#X obj 40 630 outlet~ outL-\$1;
#X obj 179 630 outlet~ outR-\$1;
#X obj 890 30 r arp_select-\$1;
#X obj 890 110 r global-bpm;
#X obj 890 70 r beat-clock;
#X obj 360 210 note-tracker airport-notes-\$1;
#N canvas 468 -1098 569 353 set-up-tape 0;
#X text 100 30 Pitch \, velocity \, note duration \, tape duration
\, tape number (starts from 0).;
#X obj 30 30 inlet;
#X obj 30 209 s;
#X obj 30 59 t a a;
#X msg 60 130 symbol tape-\$0-\$5;
#X obj 100 170 print SENDING_TO_TAPE_NUM;
#X connect 1 0 3 0;
#X connect 3 0 2 0;
#X connect 3 1 4 0;
#X connect 4 0 2 1;
#X connect 4 0 5 0;
#X restore 360 240 pd set-up-tape;
#X obj 450 321 tape 1 \$0;
#X obj 440 290 tape 0 \$0;
#X obj 460 352 tape 2 \$0;
#X obj 470 383 tape 3 \$0;
#X obj 480 416 tape 4 \$0;
#X obj 490 447 tape 5 \$0;
#X connect 0 0 8 0;
#X connect 0 0 14 0;
#X connect 14 0 15 0;
#X connect 16 0 8 0;
#X connect 17 0 8 0;
#X connect 18 0 8 0;
#X connect 19 0 8 0;
#X connect 20 0 8 0;
#X connect 21 0 8 0;
