#N canvas 316 -979 1264 847 12;
#X obj 315 17 r notesIn-\$1;
#X obj 36 17 inlet~ inL-\$1;
#X obj 146 17 inlet~ inR-\$1;
#X obj 485 16 r auxIn-\$1;
#X obj 584 16 r expIn-\$1;
#X obj 584 41 r fsIn-\$1;
#X obj 702 16 r ctrlIn-\$1;
#X obj 702 42 s ctrlOut-\$1;
#X obj 350 620 s notesOut-\$1;
#X obj 40 630 outlet~ outL-\$1;
#X obj 179 630 outlet~ outR-\$1;
#X obj 890 30 r arp_select-\$1;
#X obj 890 110 r global-bpm;
#X obj 890 70 r beat-clock;
#X obj 524 569 stripnote;
#X obj 360 210 note-tracker airport-notes-\$1;
#N canvas 436 -1129 1374 914 set-up-tape 1;
#X text 100 30 Pitch \, velocity \, note duration \, tape duration
\, tape number (starts from 0).;
#X obj 30 30 inlet;
#X obj 440 169 print ONE;
#X obj 440 140 r test-1;
#X obj 530 140 r test-2;
#X obj 530 169 print TWO;
#X obj 640 140 r test-3;
#X obj 640 169 print THREE;
#X obj 750 140 r test-4;
#X obj 750 169 print FOUR;
#X obj 850 140 r test-5;
#X obj 850 169 print FIVE;
#X obj 30 209 s;
#X obj 60 343 r beat-clock;
#X obj 330 379 unpack f f f f f;
#X obj 331 501 pack f f;
#X text 210 879 Pitch \, velocity;
#X msg 333 880 set \$1 \$2;
#X msg 353 919 69 100;
#X obj 333 830 t a a;
#X text 664 880 Pitch \, note-off;
#X msg 593 880 set \$1 0;
#X msg 573 919 69 0;
#X obj 260 270 r tape-\$0-5;
#X obj 519 557 f;
#X text 564 557 Tape count \, initial value note duration;
#X obj 519 589 + 1;
#X obj 573 767 ==;
#X obj 573 825 t b;
#X obj 458 970 outlet;
#X obj 60 372 bng 15 250 50 0 empty empty empty 17 7 0 10 #fcfcfc #000000
#000000;
#X floatatom 474 600 5 0 0 0 - - -, f 5;
#X obj 448 416 s tape-\$0-5-tdur;
#X obj 438 444 s tape-\$0-5-ndur;
#X obj 519 618 %;
#X obj 570 589 r tape-\$0-5-tdur;
#X obj 519 658 t f f f;
#X obj 500 712 sel 0;
#X obj 60 526 s tape-\$0-5-count-left;
#X obj 410 501 r tape-\$0-5-count-left;
#X obj 584 500 r tape-\$0-5-count-right;
#X obj 594 690 s tape-\$0-5-count-right;
#X obj 594 727 r tape-\$0-5-ndur;
#X obj 30 59 t a a;
#X obj 1010 270 r tape-\$0-0;
#X obj 1010 304 print RECEIVE_0;
#X obj 1010 360 r tape-\$0-1;
#X obj 1010 394 print RECEIVE_1;
#X obj 1010 450 r tape-\$0-2;
#X obj 1010 484 print RECEIVE_2;
#X obj 1010 540 r tape-\$0-3;
#X obj 1010 574 print RECEIVE_3;
#X obj 1010 640 r tape-\$0-4;
#X obj 1010 674 print RECEIVE_4;
#X msg 60 130 symbol tape-\$0-\$5;
#X obj 210 130 print TAPE_NUM;
#X obj 573 796 sel 1;
#X text 100 70 Or stop symbol;
#X text 350 270 Receive pitch etc \, or stop symbol;
#X obj 420 880 r tape-\$0-5-note-off;
#X obj 652 380 s tape-\$0-5-note-off;
#X obj 620 270 r tape-\$0-5-stop;
#X obj 60 486 spigot 0;
#X obj 113 448 r tape-\$0-5-spigot;
#X obj 260 324 t 1 a;
#X obj 160 390 s tape-\$0-5-spigot;
#X obj 620 349 t 0 b;
#X obj 620 410 s tape-\$0-5-spigot;
#X text 750 270 Bang to stop;
#X obj 680 310 bng 15 250 50 0 empty empty empty 17 7 0 10 #fcfcfc
#000000 #000000;
#X text 710 310 Use for testing;
#X connect 1 0 43 0;
#X connect 3 0 2 0;
#X connect 4 0 5 0;
#X connect 6 0 7 0;
#X connect 8 0 9 0;
#X connect 10 0 11 0;
#X connect 13 0 30 0;
#X connect 14 0 15 0;
#X connect 14 1 15 1;
#X connect 14 2 33 0;
#X connect 14 3 32 0;
#X connect 15 0 19 0;
#X connect 17 0 18 0;
#X connect 18 0 29 0;
#X connect 19 0 17 0;
#X connect 19 1 21 0;
#X connect 21 0 22 0;
#X connect 22 0 29 0;
#X connect 23 0 64 0;
#X connect 24 0 26 0;
#X connect 26 0 34 0;
#X connect 27 0 56 0;
#X connect 28 0 22 0;
#X connect 30 0 62 0;
#X connect 34 0 36 0;
#X connect 34 0 31 0;
#X connect 35 0 34 1;
#X connect 36 0 37 0;
#X connect 36 1 27 0;
#X connect 36 2 41 0;
#X connect 37 0 18 0;
#X connect 39 0 24 0;
#X connect 40 0 24 1;
#X connect 42 0 27 1;
#X connect 43 0 12 0;
#X connect 43 1 54 0;
#X connect 44 0 45 0;
#X connect 46 0 47 0;
#X connect 48 0 49 0;
#X connect 50 0 51 0;
#X connect 52 0 53 0;
#X connect 54 0 12 1;
#X connect 56 0 28 0;
#X connect 59 0 22 0;
#X connect 61 0 66 0;
#X connect 62 0 38 0;
#X connect 63 0 62 1;
#X connect 64 0 65 0;
#X connect 64 1 14 0;
#X connect 66 0 67 0;
#X connect 66 1 60 0;
#X connect 69 0 66 0;
#X restore 360 240 pd set-up-tape;
#X connect 0 0 8 0;
#X connect 0 0 15 0;
#X connect 15 0 16 0;
#X connect 16 0 8 0;
