#N canvas 307 -1035 1264 848 12;
#X obj 315 17 r notesIn-\$1;
#X obj 36 17 inlet~ inL-\$1;
#X obj 146 17 inlet~ inR-\$1;
#X obj 485 16 r auxIn-\$1;
#X obj 584 16 r expIn-\$1;
#X obj 584 41 r fsIn-\$1;
#X obj 702 16 r ctrlIn-\$1;
#X obj 702 42 s ctrlOut-\$1;
#X obj 350 620 s notesOut-\$1;
#X obj 40 630 outlet~ outL-\$1;
#X obj 179 630 outlet~ outR-\$1;
#X obj 890 30 r arp_select-\$1;
#X obj 890 110 r global-bpm;
#X obj 890 70 r beat-clock;
#X obj 360 210 note-tracker airport-notes-\$1;
#N canvas 234 -1050 1522 914 set-up-tape 1;
#X text 100 30 Pitch \, velocity \, note duration \, tape duration
\, tape number (starts from 0).;
#X obj 30 30 inlet;
#X obj 30 209 s;
#X obj 60 343 r beat-clock;
#X obj 330 379 unpack f f f f f;
#X obj 331 501 pack f f;
#X text 210 879 Pitch \, velocity;
#X msg 333 880 set \$1 \$2;
#X msg 353 919 69 100;
#X obj 333 830 t a a;
#X text 664 880 Pitch \, note-off;
#X msg 593 880 set \$1 0;
#X msg 573 919 69 0;
#X obj 519 557 f;
#X text 564 557 Tape count \, initial value note duration;
#X obj 519 589 + 1;
#X obj 573 767 ==;
#X obj 573 825 t b;
#X obj 458 970 outlet;
#X obj 60 372 bng 15 250 50 0 empty empty empty 17 7 0 10 #fcfcfc #000000
#000000;
#X floatatom 474 600 5 0 0 0 - - -, f 5;
#X obj 448 416 s tape-\$0-5-tdur;
#X obj 438 444 s tape-\$0-5-ndur;
#X obj 519 618 %;
#X obj 570 589 r tape-\$0-5-tdur;
#X obj 519 658 t f f f;
#X obj 500 712 sel 0;
#X obj 60 526 s tape-\$0-5-count-left;
#X obj 410 501 r tape-\$0-5-count-left;
#X obj 584 500 r tape-\$0-5-count-right;
#X obj 594 690 s tape-\$0-5-count-right;
#X obj 594 727 r tape-\$0-5-ndur;
#X obj 30 59 t a a;
#X obj 210 130 print TAPE_NUM;
#X obj 573 796 sel 1;
#X text 100 70 Or stop symbol;
#X text 350 270 Receive pitch etc \, or stop symbol;
#X obj 420 880 r tape-\$0-5-note-off;
#X obj 652 380 s tape-\$0-5-note-off;
#X obj 60 486 spigot 0;
#X obj 113 448 r tape-\$0-5-spigot;
#X obj 260 324 t 1 a;
#X obj 160 390 s tape-\$0-5-spigot;
#X obj 620 349 t 0 b;
#X obj 620 410 s tape-\$0-5-spigot;
#X text 750 270 Bang to stop;
#X obj 680 310 bng 15 250 50 0 empty empty empty 17 7 0 10 #fcfcfc
#000000 #000000;
#X text 710 310 Use for testing;
#X obj 260 270 r tape-\$0-5-X;
#X obj 620 270 r tape-\$0-5-stop-X;
#X msg 60 130 symbol tape-\$5-\$0;
#X connect 1 0 32 0;
#X connect 3 0 19 0;
#X connect 4 0 5 0;
#X connect 4 1 5 1;
#X connect 4 2 22 0;
#X connect 4 3 21 0;
#X connect 5 0 9 0;
#X connect 7 0 8 0;
#X connect 8 0 18 0;
#X connect 9 0 7 0;
#X connect 9 1 11 0;
#X connect 11 0 12 0;
#X connect 12 0 18 0;
#X connect 13 0 15 0;
#X connect 15 0 23 0;
#X connect 16 0 34 0;
#X connect 17 0 12 0;
#X connect 19 0 39 0;
#X connect 23 0 25 0;
#X connect 23 0 20 0;
#X connect 24 0 23 1;
#X connect 25 0 26 0;
#X connect 25 1 16 0;
#X connect 25 2 30 0;
#X connect 26 0 8 0;
#X connect 28 0 13 0;
#X connect 29 0 13 1;
#X connect 31 0 16 1;
#X connect 32 0 2 0;
#X connect 32 1 50 0;
#X connect 34 0 17 0;
#X connect 37 0 12 0;
#X connect 39 0 27 0;
#X connect 40 0 39 1;
#X connect 41 0 42 0;
#X connect 41 1 4 0;
#X connect 43 0 44 0;
#X connect 43 1 38 0;
#X connect 46 0 43 0;
#X connect 48 0 41 0;
#X connect 49 0 43 0;
#X connect 50 0 2 1;
#X restore 360 240 pd set-up-tape;
#X obj 450 321 tape 1 \$0;
#X obj 440 290 tape 0 \$0;
#X obj 460 352 tape 2 \$0;
#X obj 470 383 tape 3 \$0;
#X obj 480 416 tape 4 \$0;
#X obj 490 447 tape 5 \$0;
#X connect 0 0 8 0;
#X connect 0 0 14 0;
#X connect 14 0 15 0;
#X connect 16 0 8 0;
#X connect 17 0 8 0;
#X connect 18 0 8 0;
#X connect 20 0 8 0;
#X connect 21 0 8 0;
