#N canvas 379 -1060 1264 772 12;
#X obj 315 17 r notesIn-\$1;
#X obj 36 17 inlet~ inL-\$1;
#X obj 146 17 inlet~ inR-\$1;
#X obj 485 16 r auxIn-\$1;
#X obj 584 16 r expIn-\$1;
#X obj 584 41 r fsIn-\$1;
#X obj 702 16 r ctrlIn-\$1;
#X obj 702 42 s ctrlOut-\$1;
#X obj 350 620 s notesOut-\$1;
#X obj 40 630 outlet~ outL-\$1;
#X obj 179 630 outlet~ outR-\$1;
#X obj 890 30 r arp_select-\$1;
#X obj 890 110 r global-bpm;
#X obj 890 70 r beat-clock;
#X obj 524 569 stripnote;
#X obj 360 210 note-tracker airport-notes-\$1;
#N canvas 1098 -903 697 443 set-up-tape 1;
#X text 100 30 Pitch \, velocity \, note duration \, tape duration
\, tape number (starts from 0).;
#X obj 30 30 inlet;
#X obj 140 299 print ONE;
#X obj 30 270 r test-0;
#X obj 30 299 print ZERO;
#X obj 140 270 r test-1;
#X obj 230 270 r test-2;
#X obj 230 299 print TWO;
#X obj 340 270 r test-3;
#X obj 340 299 print THREE;
#X obj 450 270 r test-4;
#X obj 450 299 print FOUR;
#X obj 550 270 r test-5;
#X obj 550 299 print FIVE;
#X msg 30 110 test-\$5;
#X obj 30 169 s;
#X obj 30 139 t b s;
#X connect 1 0 14 0;
#X connect 3 0 4 0;
#X connect 5 0 2 0;
#X connect 6 0 7 0;
#X connect 8 0 9 0;
#X connect 10 0 11 0;
#X connect 12 0 13 0;
#X connect 14 0 16 0;
#X connect 16 0 15 0;
#X connect 16 1 15 1;
#X restore 360 240 pd set-up-tape;
#X connect 0 0 8 0;
#X connect 0 0 15 0;
#X connect 15 0 16 0;
