#N canvas -697 -951 1270 878 12;
#X obj 315 17 r notesIn-\$1;
#X obj 36 17 inlet~ inL-\$1;
#X obj 146 17 inlet~ inR-\$1;
#X obj 485 16 r auxIn-\$1;
#X obj 584 16 r expIn-\$1;
#X obj 584 41 r fsIn-\$1;
#X obj 702 16 r ctrlIn-\$1;
#X obj 702 42 s ctrlOut-\$1;
#X obj 350 620 s notesOut-\$1;
#X obj 40 630 outlet~ outL-\$1;
#X obj 179 630 outlet~ outR-\$1;
#X obj 890 30 r arp_select-\$1;
#X obj 890 110 r global-bpm;
#X obj 890 70 r beat-clock;
#X obj 360 210 note-tracker airport-notes-\$1;
#N canvas 476 280 570 354 set-up-tape 0;
#X text 100 30 Pitch \, velocity \, note duration \, tape duration
\, tape number (starts from 0).;
#X obj 30 30 inlet;
#X obj 30 209 s;
#X obj 30 59 t a a;
#X msg 60 130 symbol tape-\$0-\$5;
#X connect 1 0 3 0;
#X connect 3 0 2 0;
#X connect 3 1 4 0;
#X connect 4 0 2 1;
#X restore 360 240 pd set-up-tape;
#X obj 450 321 tape 1 \$0;
#X obj 440 290 tape 0 \$0;
#X obj 460 352 tape 2 \$0;
#X obj 470 383 tape 3 \$0;
#X obj 480 416 tape 4 \$0;
#X obj 490 447 tape 5 \$0;
#X obj 841 223 bng 15 250 50 0 empty empty empty 17 7 0 10 #fcfcfc
#000000 #000000;
#X text 870 221 Bang to stop tapes (when testing);
#X msg 580 270 symbol tape-\$0-\$1-stop;
#X obj 560 240 t b a;
#X obj 580 294 t a a;
#X obj 560 320 s;
#N canvas 1223 0 550 223 stop-tape-and-delete-5 0;
#X obj 70 126 s tape-\$0-5-stop;
#X obj 102 99 s note-tracker-delete-tape;
#X obj 70 70 t b 5;
#X obj 70 40 inlet;
#X text 120 40 Bang to stop the tape and delete from tracker;
#X connect 2 0 0 0;
#X connect 2 1 1 0;
#X connect 3 0 2 0;
#X restore 841 420 pd stop-tape-and-delete-5;
#N canvas 485 344 551 225 stop-tape-and-delete-0 0;
#X obj 102 99 s note-tracker-delete-tape;
#X obj 70 40 inlet;
#X text 120 40 Bang to stop the tape and delete from tracker;
#X obj 70 70 t b 0;
#X obj 70 126 s tape-\$0-0-stop;
#X connect 1 0 3 0;
#X connect 3 0 4 0;
#X connect 3 1 0 0;
#X restore 889 269 pd stop-tape-and-delete-0;
#N canvas 485 344 551 225 stop-tape-and-delete-1 0;
#X obj 102 99 s note-tracker-delete-tape;
#X obj 70 40 inlet;
#X text 120 40 Bang to stop the tape and delete from tracker;
#X obj 70 70 t b 1;
#X obj 70 126 s tape-\$0-1-stop;
#X connect 1 0 3 0;
#X connect 3 0 4 0;
#X connect 3 1 0 0;
#X restore 880 299 pd stop-tape-and-delete-1;
#N canvas 485 344 551 225 stop-tape-and-delete-2 0;
#X obj 102 99 s note-tracker-delete-tape;
#X obj 70 40 inlet;
#X text 120 40 Bang to stop the tape and delete from tracker;
#X obj 70 70 t b 2;
#X obj 70 126 s tape-\$0-2-stop;
#X connect 1 0 3 0;
#X connect 3 0 4 0;
#X connect 3 1 0 0;
#X restore 869 330 pd stop-tape-and-delete-2;
#N canvas 485 344 551 225 stop-tape-and-delete-3 0;
#X obj 102 99 s note-tracker-delete-tape;
#X obj 70 40 inlet;
#X text 120 40 Bang to stop the tape and delete from tracker;
#X obj 70 70 t b 3;
#X obj 70 126 s tape-\$0-3-stop;
#X connect 1 0 3 0;
#X connect 3 0 4 0;
#X connect 3 1 0 0;
#X restore 860 360 pd stop-tape-and-delete-3;
#N canvas 485 344 551 225 stop-tape-and-delete-4 0;
#X obj 102 99 s note-tracker-delete-tape;
#X obj 70 40 inlet;
#X text 120 40 Bang to stop the tape and delete from tracker;
#X obj 70 70 t b 4;
#X obj 70 126 s tape-\$0-4-stop;
#X connect 1 0 3 0;
#X connect 3 0 4 0;
#X connect 3 1 0 0;
#X restore 850 390 pd stop-tape-and-delete-4;
#X connect 0 0 8 0;
#X connect 0 0 14 0;
#X connect 14 0 15 0;
#X connect 14 1 25 0;
#X connect 16 0 8 0;
#X connect 17 0 8 0;
#X connect 18 0 8 0;
#X connect 19 0 8 0;
#X connect 20 0 8 0;
#X connect 21 0 8 0;
#X connect 22 0 29 0;
#X connect 22 0 30 0;
#X connect 22 0 31 0;
#X connect 22 0 32 0;
#X connect 22 0 33 0;
#X connect 22 0 28 0;
#X connect 24 0 26 0;
#X connect 25 0 27 0;
#X connect 25 1 24 0;
#X connect 26 0 27 1;
