#N canvas 244 121 1030 643 12;
#X obj 561 398 t a b;
#X obj 306 253 sel 0, f 19;
#X obj 558 280 t a a;
#X obj 436 281 t b;
#X obj 267 167 t a a, f 42;
#X obj 561 354 list store;
#X obj 306 320 list store;
#X obj 267 212 unpack;
#X obj 306 406 route -1;
#X obj 306 344 unpack 0 0;
#X obj 267 105 inlet;
#X text 309 102 note pairs;
#X obj 756 285 text define \$1;
#X obj 359 450 text delete \$1;
#X obj 306 382 text search \$1;
#X text 556 41 Arg1: Name of Text Buffer;
#X obj 608 434 i 1e+09;
#X obj 561 469 text insert \$1;
#X text 656 355 1.1 store a note pair on the right;
#X text 50 320 1.2 store a note pair on the right;
#X text 110 280 2.1 bang if it's a note off;
#X text 410 350 2.2 bang if note on;
#X text 880 280 0 create text buffer;
#X text 60 380 3.2 look for line with that pitch;
#X text 95 408 3.3 make sure we've found it;
#X text 126 450 3.4 delete line with that pitch;
#X text 88 352 3.1 send pitch for a note off;
#X text 620 400 3.1 bang if it's a note on;
#X text 671 435 3.2 we'll insert at the end...;
#X text 680 470 3.3 insert the note pair (for note on);
#X connect 0 0 17 0;
#X connect 0 1 16 0;
#X connect 1 0 6 0;
#X connect 1 1 3 0;
#X connect 2 0 6 1;
#X connect 2 1 5 1;
#X connect 3 0 5 0;
#X connect 4 0 7 0;
#X connect 4 1 2 0;
#X connect 5 0 0 0;
#X connect 6 0 9 0;
#X connect 7 1 1 0;
#X connect 8 1 13 0;
#X connect 9 0 14 0;
#X connect 10 0 4 0;
#X connect 14 0 8 0;
#X connect 16 0 17 1;
