#N canvas 120 -1039 1285 774 10;
#X obj 40 30 loadbang;
#X obj 40 55 s init;
#X obj 420 40 v global-bpm;
#X obj 420 65 v beat-clock;
#N canvas 564 108 814 715 run-clocks 0;
#X text 10 44 beat clock 0 to 359;
#X text 290 44 Set global bpm;
#X text 460 84 beat_interval_s = 1 / beats_per_s;
#X text 460 109 beat_per_s = bpm / 60;
#X text 460 134 beat_interval_ms = beat_interval_s * 1000;
#X text 460 159 Tharefore... beat_interval_ms = 1 / beats_per_s * 1000
;
#X text 460 184 = 1 / (bpm/60) * 1000;
#X obj 290 138 expr 60 / $f1 * 1000;
#X floatatom 330 163 5 0 0 0 - - -, f 5;
#X obj 290 186 s beat_int_ms;
#X obj 81 120 r beat_int_ms;
#X obj 24 207 bng 15 250 50 0 empty empty empty 17 7 0 10 #fcfcfc #000000
#000000;
#X obj 81 149 t f f;
#X obj 90 254 metro 1000;
#X obj 24 182 metro 1000;
#X obj 90 362 f 0;
#X obj 140 364 + 1;
#X obj 90 387 % 360;
#X floatatom 181 412 5 0 0 0 - - -, f 5;
#X obj 147 220 / 360;
#X floatatom 170 254 10 0 0 0 - - -, f 10;
#X obj 90 412 s beat-clock;
#X obj 110 284 r init;
#X obj 110 309 f 0;
#X obj 90 214 r init;
#X obj 24 87 r init;
#X obj 290 100 r global-bpm;
#X connect 7 0 8 0;
#X connect 7 0 9 0;
#X connect 10 0 12 0;
#X connect 12 0 14 1;
#X connect 12 1 19 0;
#X connect 13 0 15 0;
#X connect 14 0 11 0;
#X connect 15 0 16 0;
#X connect 15 0 17 0;
#X connect 16 0 15 1;
#X connect 17 0 18 0;
#X connect 17 0 21 0;
#X connect 19 0 13 1;
#X connect 19 0 20 0;
#X connect 22 0 23 0;
#X connect 23 0 15 1;
#X connect 24 0 13 0;
#X connect 25 0 14 0;
#X connect 26 0 7 0;
#X restore 320 40 pd run-clocks;
#X floatatom 110 33 5 1 270 0 - - -, f 5;
#X obj 110 60 s global-bpm;
#X obj 60 150 r beat-clock;
#X obj 60 175 select 0;
#X obj 60 200 bng 15 250 50 0 empty empty empty 17 7 0 10 #fcfcfc #000000
#000000;
#N canvas 361 134 799 645 synth 0;
#X text 50 50 Just make a sound;
#X obj 76 312 unpack f f;
#X obj 76 407 osc~;
#X obj 76 452 *~;
#X obj 117 413 / 127;
#X obj 76 374 mtof;
#X obj 336 567 dac~;
#X obj 86 102 inlet;
#X obj 128 184 pack f f f;
#X obj 128 209 route 1 2 3 4;
#X obj 128 159 poly 4;
#X obj 230 310 unpack f f;
#X obj 230 405 osc~;
#X obj 230 450 *~;
#X obj 271 411 / 127;
#X obj 230 372 mtof;
#X obj 370 310 unpack f f;
#X obj 370 405 osc~;
#X obj 370 450 *~;
#X obj 411 411 / 127;
#X obj 370 372 mtof;
#X obj 540 310 unpack f f;
#X obj 540 405 osc~;
#X obj 540 450 *~;
#X obj 581 411 / 127;
#X obj 540 372 mtof;
#X obj 100 340 print ONE;
#X obj 570 340 print FOUR;
#X obj 400 340 print THREE;
#X obj 260 340 print TWO;
#X connect 1 0 5 0;
#X connect 1 0 26 0;
#X connect 1 1 4 0;
#X connect 2 0 3 0;
#X connect 3 0 6 0;
#X connect 3 0 6 1;
#X connect 4 0 3 1;
#X connect 5 0 2 0;
#X connect 7 0 10 0;
#X connect 8 0 9 0;
#X connect 9 0 1 0;
#X connect 9 1 11 0;
#X connect 9 2 16 0;
#X connect 9 3 21 0;
#X connect 10 0 8 0;
#X connect 10 1 8 1;
#X connect 10 2 8 2;
#X connect 11 0 15 0;
#X connect 11 0 29 0;
#X connect 11 1 14 0;
#X connect 12 0 13 0;
#X connect 13 0 6 0;
#X connect 13 0 6 1;
#X connect 14 0 13 1;
#X connect 15 0 12 0;
#X connect 16 0 20 0;
#X connect 16 0 28 0;
#X connect 16 1 19 0;
#X connect 17 0 18 0;
#X connect 18 0 6 0;
#X connect 18 0 6 1;
#X connect 19 0 18 1;
#X connect 20 0 17 0;
#X connect 21 0 25 0;
#X connect 21 0 27 0;
#X connect 21 1 24 0;
#X connect 22 0 23 0;
#X connect 23 0 6 0;
#X connect 23 0 6 1;
#X connect 24 0 23 1;
#X connect 25 0 22 0;
#X restore 650 488 pd synth;
#X text 540 200 midi note \, vel \, duration (ms);
#N canvas 844 -959 1012 817 play-two-notes 0;
#X obj 50 15 inlet;
#X obj 220 15 inlet;
#X obj 193 280 delay;
#X obj 330 20 inlet;
#X msg 330 329 53 60 500;
#X obj 50 215 s notesIn-1;
#X obj 330 449 s notesIn-1;
#X obj 50 70 makenote;
#X obj 95 105 t f f;
#X obj 130 136 route 0;
#X obj 50 142 pack f f;
#X msg 330 304 set \$1 \$2 \$3;
#X obj 330 374 makenote;
#X obj 330 399 pack f f;
#X connect 0 0 7 0;
#X connect 1 0 2 1;
#X connect 2 0 4 0;
#X connect 3 0 11 0;
#X connect 4 0 12 0;
#X connect 7 0 10 0;
#X connect 7 1 8 0;
#X connect 8 0 10 1;
#X connect 8 1 9 0;
#X connect 9 0 2 0;
#X connect 10 0 5 0;
#X connect 11 0 4 0;
#X connect 12 0 13 0;
#X connect 12 1 13 1;
#X connect 13 0 6 0;
#X restore 370 245 pd play-two-notes;
#X msg 419 200 300;
#X msg 320 200 69 100 1000;
#X msg 462 200 53 60 500;
#X obj 400 160 t b b b;
#X obj 400 130 bng 15 250 50 0 empty empty empty 17 7 0 10 #fcfcfc
#000000 #000000;
#X text 700 330 sends to notesOut-\$1;
#X obj 650 450 r notesOut-1;
#X text 490 245 sends to notesIn-1;
#X text 988 200 midi note \, vel \, duration (ms);
#N canvas 636 236 738 574 play-two-notes 0;
#X obj 50 15 inlet;
#X obj 50 115 unpack f f f;
#X obj 50 194 pack f f;
#X obj 126 144 delay;
#X obj 126 169 f;
#X obj 126 194 pack f 0;
#X obj 220 15 inlet;
#X obj 220 280 delay;
#X obj 126 219 t l b;
#X obj 330 20 inlet;
#X obj 330 120 unpack f f f;
#X obj 330 199 pack f f;
#X obj 406 389 delay;
#X obj 406 414 f;
#X obj 406 439 pack f 0;
#X msg 330 224 set \$1 \$2;
#X msg 330 329 59 30;
#X obj 330 354 t l b;
#X obj 50 275 s notesIn-1;
#X obj 330 479 s notesIn-1;
#X connect 0 0 1 0;
#X connect 1 0 2 0;
#X connect 1 0 4 1;
#X connect 1 1 2 1;
#X connect 1 2 3 0;
#X connect 2 0 18 0;
#X connect 3 0 4 0;
#X connect 4 0 5 0;
#X connect 5 0 8 0;
#X connect 6 0 7 1;
#X connect 7 0 16 0;
#X connect 8 0 18 0;
#X connect 8 1 7 0;
#X connect 9 0 10 0;
#X connect 10 0 11 0;
#X connect 10 0 13 1;
#X connect 10 1 11 1;
#X connect 10 2 12 1;
#X connect 11 0 15 0;
#X connect 12 0 13 0;
#X connect 13 0 14 0;
#X connect 14 0 19 0;
#X connect 15 0 16 0;
#X connect 16 0 17 0;
#X connect 17 0 19 0;
#X connect 17 1 12 0;
#X restore 818 245 pd play-two-notes;
#X msg 867 200 300;
#X obj 848 160 t b b b;
#X obj 848 130 bng 15 250 50 0 empty empty empty 17 7 0 10 #fcfcfc
#000000 #000000;
#X text 938 245 sends to notesIn-1;
#X msg 768 200 73 100 300;
#X msg 910 200 59 30 1000;
#X obj 620 80 bng 15 250 50 0 empty empty empty 17 7 0 10 #fcfcfc #000000
#000000;
#X text 650 390 sends to notesOut-\$1;
#X obj 590 330 airport-module 1;
#X obj 590 390 module 2;
#X text 590 300 Only the module numbered 1 is used;
#X text 701 359 sends to notesOut-\$1;
#X obj 591 359 thru-module 2;
#X connect 0 0 1 0;
#X connect 5 0 6 0;
#X connect 7 0 8 0;
#X connect 8 0 9 0;
#X connect 13 0 12 1;
#X connect 14 0 12 0;
#X connect 15 0 12 2;
#X connect 16 0 14 0;
#X connect 16 1 13 0;
#X connect 16 2 15 0;
#X connect 17 0 16 0;
#X connect 19 0 10 0;
#X connect 23 0 22 1;
#X connect 24 0 27 0;
#X connect 24 1 23 0;
#X connect 24 2 28 0;
#X connect 25 0 24 0;
#X connect 27 0 22 0;
#X connect 28 0 22 2;
#X connect 29 0 17 0;
#X connect 29 0 25 0;
