#N canvas 44 44 1026 774 10;
#X obj 40 30 loadbang;
#X obj 40 55 s init;
#X obj 420 40 v global-bpm;
#X obj 420 65 v beat-clock;
#N canvas 564 108 814 715 run-clocks 0;
#X text 10 44 beat clock 0 to 359;
#X text 290 44 Set global bpm;
#X text 460 84 beat_interval_s = 1 / beats_per_s;
#X text 460 109 beat_per_s = bpm / 60;
#X text 460 134 beat_interval_ms = beat_interval_s * 1000;
#X text 460 159 Tharefore... beat_interval_ms = 1 / beats_per_s * 1000
;
#X text 460 184 = 1 / (bpm/60) * 1000;
#X obj 290 138 expr 60 / $f1 * 1000;
#X floatatom 330 163 5 0 0 0 - - -, f 5;
#X obj 290 186 s beat_int_ms;
#X obj 81 120 r beat_int_ms;
#X obj 24 207 bng 15 250 50 0 empty empty empty 17 7 0 10 #fcfcfc #000000
#000000;
#X obj 81 149 t f f;
#X obj 90 254 metro 1000;
#X obj 24 182 metro 1000;
#X obj 90 362 f 0;
#X obj 140 364 + 1;
#X obj 90 387 % 360;
#X floatatom 181 412 5 0 0 0 - - -, f 5;
#X obj 147 220 / 360;
#X floatatom 170 254 10 0 0 0 - - -, f 10;
#X obj 90 412 s beat-clock;
#X obj 110 284 r init;
#X obj 110 309 f 0;
#X obj 90 214 r init;
#X obj 24 87 r init;
#X obj 290 100 r global-bpm;
#X connect 7 0 8 0;
#X connect 7 0 9 0;
#X connect 10 0 12 0;
#X connect 12 0 14 1;
#X connect 12 1 19 0;
#X connect 13 0 15 0;
#X connect 14 0 11 0;
#X connect 15 0 16 0;
#X connect 15 0 17 0;
#X connect 16 0 15 1;
#X connect 17 0 18 0;
#X connect 17 0 21 0;
#X connect 19 0 13 1;
#X connect 19 0 20 0;
#X connect 22 0 23 0;
#X connect 23 0 15 1;
#X connect 24 0 13 0;
#X connect 25 0 14 0;
#X connect 26 0 7 0;
#X restore 320 40 pd run-clocks;
#X floatatom 110 33 5 1 270 0 - - -, f 5;
#X obj 110 60 s global-bpm;
#X obj 60 150 r beat-clock;
#X obj 60 175 select 0;
#X obj 60 200 bng 15 250 50 0 empty empty empty 17 7 0 10 #fcfcfc #000000
#000000;
#X connect 0 0 1 0;
#X connect 5 0 6 0;
#X connect 7 0 8 0;
#X connect 8 0 9 0;
