#N canvas 29 92 1029 774 10;
#X obj 40 30 loadbang;
#X obj 40 55 s init;
#X obj 420 40 v global-bpm;
#X obj 420 65 v beat-clock;
#N canvas 564 108 814 715 run-clocks 0;
#X text 10 44 beat clock 0 to 359;
#X text 290 44 Set global bpm;
#X text 460 84 beat_interval_s = 1 / beats_per_s;
#X text 460 109 beat_per_s = bpm / 60;
#X text 460 134 beat_interval_ms = beat_interval_s * 1000;
#X text 460 159 Tharefore... beat_interval_ms = 1 / beats_per_s * 1000
;
#X text 460 184 = 1 / (bpm/60) * 1000;
#X obj 290 138 expr 60 / $f1 * 1000;
#X floatatom 330 163 5 0 0 0 - - -, f 5;
#X obj 290 186 s beat_int_ms;
#X obj 81 120 r beat_int_ms;
#X obj 24 207 bng 15 250 50 0 empty empty empty 17 7 0 10 #fcfcfc #000000
#000000;
#X obj 81 149 t f f;
#X obj 90 254 metro 1000;
#X obj 24 182 metro 1000;
#X obj 90 362 f 0;
#X obj 140 364 + 1;
#X obj 90 387 % 360;
#X floatatom 181 412 5 0 0 0 - - -, f 5;
#X obj 147 220 / 360;
#X floatatom 170 254 10 0 0 0 - - -, f 10;
#X obj 90 412 s beat-clock;
#X obj 110 284 r init;
#X obj 110 309 f 0;
#X obj 90 214 r init;
#X obj 24 87 r init;
#X obj 290 100 r global-bpm;
#X connect 7 0 8 0;
#X connect 7 0 9 0;
#X connect 10 0 12 0;
#X connect 12 0 14 1;
#X connect 12 1 19 0;
#X connect 13 0 15 0;
#X connect 14 0 11 0;
#X connect 15 0 16 0;
#X connect 15 0 17 0;
#X connect 16 0 15 1;
#X connect 17 0 18 0;
#X connect 17 0 21 0;
#X connect 19 0 13 1;
#X connect 19 0 20 0;
#X connect 22 0 23 0;
#X connect 23 0 15 1;
#X connect 24 0 13 0;
#X connect 25 0 14 0;
#X connect 26 0 7 0;
#X restore 320 40 pd run-clocks;
#X floatatom 110 33 5 1 270 0 - - -, f 5;
#X obj 110 60 s global-bpm;
#X obj 60 150 r beat-clock;
#X obj 60 175 select 0;
#X obj 60 200 bng 15 250 50 0 empty empty empty 17 7 0 10 #fcfcfc #000000
#000000;
#N canvas 348 140 798 643 synth 1;
#X text 50 50 Just make a sound;
#X obj 76 262 unpack f f;
#X obj 76 327 osc~;
#X obj 76 372 *~;
#X obj 117 333 / 127;
#X obj 76 294 mtof;
#X obj 76 417 dac~;
#X obj 86 102 inlet;
#X connect 1 0 5 0;
#X connect 1 1 4 0;
#X connect 2 0 3 0;
#X connect 3 0 6 0;
#X connect 3 0 6 1;
#X connect 4 0 3 1;
#X connect 5 0 2 0;
#X connect 7 0 1 0;
#X restore 370 368 pd synth;
#X text 540 200 midi note \, vel \, duration (ms);
#N canvas 636 236 738 574 play-two-notes 0;
#X obj 50 15 inlet;
#X obj 50 115 unpack f f f;
#X obj 50 194 pack f f;
#X obj 126 144 delay;
#X obj 126 169 f;
#X obj 126 194 pack f 0;
#X obj 220 15 inlet;
#X obj 220 280 delay;
#X obj 126 219 t l b;
#X obj 330 20 inlet;
#X obj 330 120 unpack f f f;
#X obj 330 199 pack f f;
#X obj 406 389 delay;
#X obj 406 414 f;
#X obj 406 439 pack f 0;
#X msg 330 224 set \$1 \$2;
#X msg 330 329 53 60;
#X obj 330 354 t l b;
#X obj 50 275 s notesIn-1;
#X obj 330 479 s notesIn-1;
#X connect 0 0 1 0;
#X connect 1 0 2 0;
#X connect 1 0 4 1;
#X connect 1 1 2 1;
#X connect 1 2 3 0;
#X connect 2 0 18 0;
#X connect 3 0 4 0;
#X connect 4 0 5 0;
#X connect 5 0 8 0;
#X connect 6 0 7 1;
#X connect 7 0 16 0;
#X connect 8 0 18 0;
#X connect 8 1 7 0;
#X connect 9 0 10 0;
#X connect 10 0 11 0;
#X connect 10 0 13 1;
#X connect 10 1 11 1;
#X connect 10 2 12 1;
#X connect 11 0 15 0;
#X connect 12 0 13 0;
#X connect 13 0 14 0;
#X connect 14 0 19 0;
#X connect 15 0 16 0;
#X connect 16 0 17 0;
#X connect 17 0 19 0;
#X connect 17 1 12 0;
#X restore 370 245 pd play-two-notes;
#X msg 419 200 300;
#X msg 320 200 69 100 1000;
#X msg 462 200 53 60 500;
#X obj 400 160 t b b b;
#X obj 400 130 bng 15 250 50 0 empty empty empty 17 7 0 10 #fcfcfc
#000000 #000000;
#X obj 370 290 module 1;
#X text 430 290 sends to notesOut-\$1;
#X obj 370 330 r notesOut-1;
#X text 490 245 sends to notesIn-1;
#X connect 0 0 1 0;
#X connect 5 0 6 0;
#X connect 7 0 8 0;
#X connect 8 0 9 0;
#X connect 13 0 12 1;
#X connect 14 0 12 0;
#X connect 15 0 12 2;
#X connect 16 0 14 0;
#X connect 16 1 13 0;
#X connect 16 2 15 0;
#X connect 17 0 16 0;
#X connect 20 0 10 0;
