#N canvas 76 50 1190 808 10;
#X obj 40 30 loadbang;
#X obj 40 55 s init;
#X obj 420 40 v global-bpm;
#X obj 420 65 v beat-clock;
#N canvas 564 108 814 718 run-clocks 0;
#X text 10 44 beat clock 0 to 359;
#X text 290 44 Set global bpm;
#X text 460 84 beat_interval_s = 1 / beats_per_s;
#X text 460 109 beat_per_s = bpm / 60;
#X text 460 134 beat_interval_ms = beat_interval_s * 1000;
#X text 460 159 Tharefore... beat_interval_ms = 1 / beats_per_s * 1000
;
#X text 460 184 = 1 / (bpm/60) * 1000;
#X obj 290 138 expr 60 / $f1 * 1000;
#X floatatom 330 163 5 0 0 0 - - -, f 5;
#X obj 290 186 s beat_int_ms;
#X obj 81 120 r beat_int_ms;
#X obj 24 207 bng 15 250 50 0 empty empty empty 17 7 0 10 #fcfcfc #000000
#000000;
#X obj 81 149 t f f;
#X obj 90 254 metro 1000;
#X obj 24 182 metro 1000;
#X obj 90 362 f 0;
#X obj 144 373 + 1;
#X obj 90 390 % 360;
#X floatatom 181 442 5 0 0 0 - - -, f 5;
#X obj 147 220 / 360;
#X floatatom 170 254 10 0 0 0 - - -, f 10;
#X obj 90 442 s beat-clock;
#X obj 110 284 r init;
#X obj 110 309 f 0;
#X obj 90 214 r init;
#X obj 24 87 r init;
#X obj 290 100 r global-bpm;
#X connect 7 0 8 0;
#X connect 7 0 9 0;
#X connect 10 0 12 0;
#X connect 12 0 14 1;
#X connect 12 1 19 0;
#X connect 13 0 15 0;
#X connect 14 0 11 0;
#X connect 15 0 17 0;
#X connect 16 0 15 1;
#X connect 17 0 16 0;
#X connect 17 0 21 0;
#X connect 17 0 18 0;
#X connect 19 0 13 1;
#X connect 19 0 20 0;
#X connect 22 0 23 0;
#X connect 23 0 15 1;
#X connect 24 0 13 0;
#X connect 25 0 14 0;
#X connect 26 0 7 0;
#X restore 320 40 pd run-clocks;
#X floatatom 110 85 5 1 270 0 - - -, f 5;
#X obj 110 112 s global-bpm;
#X obj 60 150 r beat-clock;
#X obj 60 175 select 0;
#X obj 60 200 bng 15 250 50 0 empty empty empty 17 7 0 10 #fcfcfc #000000
#000000;
#N canvas 360 133 801 647 synth 0;
#X text 50 50 Just make a sound;
#X obj 76 312 unpack f f;
#X obj 76 407 osc~;
#X obj 76 452 *~;
#X obj 117 413 / 127;
#X obj 76 374 mtof;
#X obj 336 567 dac~;
#X obj 86 102 inlet;
#X obj 128 184 pack f f f;
#X obj 128 209 route 1 2 3 4;
#X obj 128 159 poly 4;
#X obj 230 310 unpack f f;
#X obj 230 405 osc~;
#X obj 230 450 *~;
#X obj 271 411 / 127;
#X obj 230 372 mtof;
#X obj 370 310 unpack f f;
#X obj 370 405 osc~;
#X obj 370 450 *~;
#X obj 411 411 / 127;
#X obj 370 372 mtof;
#X obj 540 310 unpack f f;
#X obj 540 405 osc~;
#X obj 540 450 *~;
#X obj 581 411 / 127;
#X obj 540 372 mtof;
#X connect 1 0 5 0;
#X connect 1 1 4 0;
#X connect 2 0 3 0;
#X connect 3 0 6 0;
#X connect 3 0 6 1;
#X connect 4 0 3 1;
#X connect 5 0 2 0;
#X connect 7 0 10 0;
#X connect 8 0 9 0;
#X connect 9 0 1 0;
#X connect 9 1 11 0;
#X connect 9 2 16 0;
#X connect 9 3 21 0;
#X connect 10 0 8 0;
#X connect 10 1 8 1;
#X connect 10 2 8 2;
#X connect 11 0 15 0;
#X connect 11 1 14 0;
#X connect 12 0 13 0;
#X connect 13 0 6 0;
#X connect 13 0 6 1;
#X connect 14 0 13 1;
#X connect 15 0 12 0;
#X connect 16 0 20 0;
#X connect 16 1 19 0;
#X connect 17 0 18 0;
#X connect 18 0 6 0;
#X connect 18 0 6 1;
#X connect 19 0 18 1;
#X connect 20 0 17 0;
#X connect 21 0 25 0;
#X connect 21 1 24 0;
#X connect 22 0 23 0;
#X connect 23 0 6 0;
#X connect 23 0 6 1;
#X connect 24 0 23 1;
#X connect 25 0 22 0;
#X restore 220 688 pd synth;
#X text 270 530 sends to notesOut-\$1;
#X obj 220 650 r notesOut-1;
#X obj 160 530 airport-module 1;
#X text 160 500 Only the module numbered 1 is used;
#X text 271 559 sends to notesOut-\$1;
#X obj 161 559 thru-module 2;
#X obj 110 30 r init;
#X obj 110 57 f 60;
#N canvas 48 0 645 507 play-seq 0;
#X obj 151 69 inlet;
#X text 200 70 symbol of sequence to play;
#X obj 150 238 s notesIn-1;
#X msg 90 123 line 0 \, auto;
#X obj 150 180 makenote;
#X obj 150 210 pack f f;
#X obj 151 94 t b s;
#X obj 150 153 text sequence dummy -w 1;
#X connect 0 0 6 0;
#X connect 3 0 7 0;
#X connect 4 0 5 0;
#X connect 4 1 5 1;
#X connect 5 0 2 0;
#X connect 6 0 3 0;
#X connect 6 1 7 1;
#X connect 7 0 4 0;
#X restore 580 223 pd play-seq;
#X msg 580 176 symbol seq1;
#X obj 600 199 text define -k seq1;
#A set 0 69 100 1000 \; 1300 53 60 500;
#N canvas 48 0 645 507 play-seq 0;
#X obj 151 69 inlet;
#X text 200 70 symbol of sequence to play;
#X obj 150 238 s notesIn-1;
#X msg 90 123 line 0 \, auto;
#X obj 150 180 makenote;
#X obj 150 210 pack f f;
#X obj 151 94 t b s;
#X obj 150 153 text sequence dummy -w 1;
#X connect 0 0 6 0;
#X connect 3 0 7 0;
#X connect 4 0 5 0;
#X connect 4 1 5 1;
#X connect 5 0 2 0;
#X connect 6 0 3 0;
#X connect 6 1 7 1;
#X connect 7 0 4 0;
#X restore 860 226 pd play-seq;
#X obj 880 200 text define -k seven-notes;
#A set 0 60 75 1000 \; 1000 61 75 1000 \; 1000 62 75 1000 \; 1000 63
75 1000 \; 1000 64 75 1000 \; 1000 65 75 1000 \; 1000 66 75 1000 \;
;
#X msg 860 176 symbol seven-notes;
#N canvas 48 0 645 507 play-seq 0;
#X obj 151 69 inlet;
#X text 200 70 symbol of sequence to play;
#X obj 150 238 s notesIn-1;
#X msg 90 123 line 0 \, auto;
#X obj 150 180 makenote;
#X obj 150 210 pack f f;
#X obj 151 94 t b s;
#X obj 150 153 text sequence dummy -w 1;
#X connect 0 0 6 0;
#X connect 3 0 7 0;
#X connect 4 0 5 0;
#X connect 4 1 5 1;
#X connect 5 0 2 0;
#X connect 6 0 3 0;
#X connect 6 1 7 1;
#X connect 7 0 4 0;
#X restore 860 328 pd play-seq;
#X msg 860 278 symbol fourteen-notes-together;
#X obj 880 302 text define -k fourteen-notes-together;
#A set 0 60 70 1000 \; 0 61 70 1000 \; 0 62 70 1000 \; 0 63 70 1000
\; 0 64 70 1000 \; 0 65 70 1000 \; 0 66 70 1000 \; 0 67 70 1000 \;
0 68 70 1000 \; 0 69 70 1000 \; 0 70 70 1000 \; 0 71 70 1000 \; 0 72
70 1000 \; 0 63 70 1000 \;;
#N canvas 48 0 645 507 play-seq 0;
#X obj 151 69 inlet;
#X text 200 70 symbol of sequence to play;
#X obj 150 238 s notesIn-1;
#X msg 90 123 line 0 \, auto;
#X obj 150 180 makenote;
#X obj 150 210 pack f f;
#X obj 151 94 t b s;
#X obj 150 153 text sequence dummy -w 1;
#X connect 0 0 6 0;
#X connect 3 0 7 0;
#X connect 4 0 5 0;
#X connect 4 1 5 1;
#X connect 5 0 2 0;
#X connect 6 0 3 0;
#X connect 6 1 7 1;
#X connect 7 0 4 0;
#X restore 580 458 pd play-seq;
#X obj 600 433 text define -k seven-notes-overlapping;
#A set 0 60 70 1000 \; 100 61 70 1000 \; 100 62 70 1000 \; 100 63 70
1000 \; 100 64 70 1000 \; 100 65 70 1000 \; 100 60 70 1000 \;;
#X msg 580 410 symbol seven-notes-overlapping;
#X text 580 380 Was the source of a bug;
#N canvas 48 0 645 507 play-seq 0;
#X obj 151 69 inlet;
#X text 200 70 symbol of sequence to play;
#X obj 150 238 s notesIn-1;
#X msg 90 123 line 0 \, auto;
#X obj 150 180 makenote;
#X obj 150 210 pack f f;
#X obj 151 94 t b s;
#X obj 150 153 text sequence dummy -w 1;
#X connect 0 0 6 0;
#X connect 3 0 7 0;
#X connect 4 0 5 0;
#X connect 4 1 5 1;
#X connect 5 0 2 0;
#X connect 6 0 3 0;
#X connect 6 1 7 1;
#X connect 7 0 4 0;
#X restore 580 325 pd play-seq;
#X text 860 146 To test that tapes are reused;
#N canvas 438 203 646 508 play-seq 0;
#X obj 151 69 inlet;
#X text 200 70 symbol of sequence to play;
#X obj 150 238 s notesIn-1;
#X msg 90 123 line 0 \, auto;
#X obj 150 180 makenote;
#X obj 150 210 pack f f;
#X obj 151 94 t b s;
#X obj 150 153 text sequence dummy -w 1;
#X connect 0 0 6 0;
#X connect 3 0 7 0;
#X connect 4 0 5 0;
#X connect 4 1 5 1;
#X connect 5 0 2 0;
#X connect 6 0 3 0;
#X connect 6 1 7 1;
#X connect 7 0 4 0;
#X restore 580 600 pd play-seq;
#X obj 600 575 text define -k slow-then-quick;
#A set 0 63 70 1000 \; 1500 63 70 200;
#X msg 580 548 symbol slow-then-quick;
#X text 580 148 A simple two-note sequence;
#X text 580 660 Double quick click to stop three notes;
#N canvas 437 202 648 510 play-seq 0;
#X obj 151 69 inlet;
#X text 200 70 symbol of sequence to play;
#X obj 150 238 s notesIn-1;
#X msg 90 123 line 0 \, auto;
#X obj 150 180 makenote;
#X obj 150 210 pack f f;
#X obj 151 94 t b s;
#X obj 150 153 text sequence dummy -w 1;
#X connect 0 0 6 0;
#X connect 3 0 7 0;
#X connect 4 0 5 0;
#X connect 4 1 5 1;
#X connect 5 0 2 0;
#X connect 6 0 3 0;
#X connect 6 1 7 1;
#X connect 7 0 4 0;
#X restore 580 742 pd play-seq;
#X msg 580 690 symbol stop-three-notes;
#X obj 600 715 text define -k stop-three-notes;
#A set 0 60 70 1000 \; 1500 62 70 1000 \; 1500 64 70 1000 \; 1500 60
70 200 \; 100 62 70 200;
#X text 650 30 Data in these tests are: wait (ms) \, midi note \, vel
\, duration;
#X obj 600 300 text define -k same-two-notes-together;
#A set 0 60 75 1000 \; 0 60 75 1000 \;;
#X msg 580 277 symbol same-two-notes-together;
#N canvas 438 203 646 508 play-seq 0;
#X obj 151 69 inlet;
#X text 200 70 symbol of sequence to play;
#X obj 150 238 s notesIn-1;
#X msg 90 123 line 0 \, auto;
#X obj 150 180 makenote;
#X obj 150 210 pack f f;
#X obj 151 94 t b s;
#X obj 150 153 text sequence dummy -w 1;
#X connect 0 0 6 0;
#X connect 3 0 7 0;
#X connect 4 0 5 0;
#X connect 4 1 5 1;
#X connect 5 0 2 0;
#X connect 6 0 3 0;
#X connect 6 1 7 1;
#X connect 7 0 4 0;
#X restore 860 740 pd play-seq;
#X obj 880 715 text define -k any-double-click;
#A set 0 60 70 1000 \; 1500 62 70 1000 \; 1500 64 70 1000 \; 1500 66
70 200 \; 100 68 70 200;
#X msg 860 690 symbol any-double-click;
#X text 860 660 Double quick click anything to stop three notes;
#X obj 650 60 bng 15 250 50 0 empty empty empty 17 7 0 10 #fcfcfc #000000
#000000;
#X text 679 60 Bang to stop tapes (when testing);
#X obj 650 89 s airport-notes-stop-all-1;
#X text 830 89 It's ...-1 because we're assuming it's pattern 1;
#N canvas 438 203 646 508 play-seq 0;
#X obj 151 69 inlet;
#X text 200 70 symbol of sequence to play;
#X obj 150 238 s notesIn-1;
#X msg 90 123 line 0 \, auto;
#X obj 150 180 makenote;
#X obj 150 210 pack f f;
#X obj 151 94 t b s;
#X obj 150 153 text sequence dummy -w 1;
#X connect 0 0 6 0;
#X connect 3 0 7 0;
#X connect 4 0 5 0;
#X connect 4 1 5 1;
#X connect 5 0 2 0;
#X connect 6 0 3 0;
#X connect 6 1 7 1;
#X connect 7 0 4 0;
#X restore 860 600 pd play-seq;
#X text 580 517 The quick note should stop the same one;
#X text 860 518 The quick note should stop only the same one;
#X obj 880 574 text define -k stop-just-one;
#A set 0 58 70 800 \; 1500 70 70 1000 \; 4000 58 70 200;
#X msg 860 548 symbol stop-just-one;
#X connect 0 0 1 0;
#X connect 5 0 6 0;
#X connect 7 0 8 0;
#X connect 8 0 9 0;
#X connect 12 0 10 0;
#X connect 17 0 18 0;
#X connect 18 0 5 0;
#X connect 20 0 19 0;
#X connect 24 0 22 0;
#X connect 26 0 25 0;
#X connect 30 0 28 0;
#X connect 36 0 34 0;
#X connect 40 0 39 0;
#X connect 44 0 32 0;
#X connect 47 0 45 0;
#X connect 49 0 51 0;
#X connect 57 0 53 0;
