#N canvas 536 306 633 564 10;
#N canvas 260 39 455 336 printout 1;
#X text 10 20 hello;
#X text 10 40 38;
#X text 10 60 hello;
#X text 10 80 38;
#X text 10 100 get_your_kicks_on_route66;
#X restore 380 123 pd printout;
#X obj 380 163 r loadbang-\$1;
#X msg 380 188 \; pd-printout clear;
#X obj 60 83 symbol;
#X msg 114 410 hello;
#X obj 60 43 r prints;
#X msg 50 413 38;
#X obj 50 448 s printf;
#X obj 114 459 s prints;
#X obj 260 97 r loadbang-\$1;
#X msg 260 122 0;
#X obj 260 147 i;
#X obj 60 211 pack s f;
#X obj 260 172 t f f;
#X obj 60 108 t s b;
#X obj 320 157 + 20;
#X msg 61 263 \; pd-printout text 10 \$2 \$1;
#X obj 380 60 bng 15 250 50 0 empty empty empty 17 7 0 10 #fcfcfc #000000
#000000;
#X obj 380 83 s loadbang-\$1;
#X obj 150 100 t f b;
#X obj 150 223 pack f f;
#X obj 150 45 r printf;
#X obj 210 446 f 66;
#X obj 210 496 s prints;
#X obj 210 413 bng 15 250 50 0 empty empty empty 17 7 0 10 #fcfcfc
#000000 #000000;
#X msg 210 471 get_your_kicks_on_route_\$1;
#X text 50 363 Test area;
#X text 240 320 Send a float to printf or a symbol to prins. They will
appear in the printout patch;
#X connect 1 0 2 0;
#X connect 3 0 14 0;
#X connect 4 0 8 0;
#X connect 5 0 3 0;
#X connect 6 0 7 0;
#X connect 9 0 10 0;
#X connect 10 0 11 0;
#X connect 11 0 13 0;
#X connect 12 0 16 0;
#X connect 13 0 12 1;
#X connect 13 1 15 0;
#X connect 13 1 20 1;
#X connect 14 0 12 0;
#X connect 14 1 11 0;
#X connect 15 0 11 1;
#X connect 17 0 18 0;
#X connect 19 0 20 0;
#X connect 19 1 11 0;
#X connect 20 0 16 0;
#X connect 21 0 19 0;
#X connect 22 0 25 0;
#X connect 24 0 22 0;
#X connect 25 0 23 0;
