#N canvas 536 306 506 396 10;
#X obj 50 40 inlet;
#X text 100 40 Pitch and velocity pair;
#X obj 50 65 unpack f f;
#X obj 50 90 text search \$1;
#X obj 50 119 select -1;
#X text 190 90 Given a pitch/velocity pair \, find the line with that
pitch \, or send a bang to the second outlet.;
#X obj 50 189 outlet;
#X obj 142 191 outlet;
#X connect 0 0 2 0;
#X connect 2 0 3 0;
#X connect 3 0 4 0;
#X connect 4 0 7 0;
#X connect 4 1 6 0;
