#N canvas 316 -1143 1274 914 12;
#X obj 315 17 r notesIn-\$1;
#X obj 36 17 inlet~ inL-\$1;
#X obj 146 17 inlet~ inR-\$1;
#X obj 485 16 r auxIn-\$1;
#X obj 584 16 r expIn-\$1;
#X obj 584 41 r fsIn-\$1;
#X obj 702 16 r ctrlIn-\$1;
#X obj 702 42 s ctrlOut-\$1;
#X obj 350 620 s notesOut-\$1;
#X obj 40 630 outlet~ outL-\$1;
#X obj 179 630 outlet~ outR-\$1;
#X obj 890 30 r arp_select-\$1;
#X obj 890 110 r global-bpm;
#X obj 890 70 r beat-clock;
#N canvas 397 189 728 535 set-up-tape 0;
#X text 100 30 Pitch \, velocity \, note duration \, tape duration
\, tape number (starts from 0).;
#X obj 30 30 inlet;
#X obj 30 299 s;
#X obj 30 59 t a a;
#X obj 62 119 t a b;
#X obj 94 153 symbol \$1;
#X obj 63 190 list append;
#X msg 63 230 symbol tape-\$5-\$6;
#X text 160 190 The pattern id has been added at the end \, in 6th
position;
#X connect 1 0 3 0;
#X connect 3 0 2 0;
#X connect 3 1 4 0;
#X connect 4 0 6 0;
#X connect 4 1 5 0;
#X connect 5 0 6 1;
#X connect 6 0 7 0;
#X connect 7 0 2 1;
#X restore 360 242 pd set-up-tape;
#N canvas 484 344 554 226 stop-tape-and-delete 0;
#X obj 102 99 s note-tracker-delete-tape;
#X obj 70 40 inlet;
#X text 120 40 Tape number to stop and delete from tracker;
#X obj 70 70 t f f;
#X obj 70 126 s tape-stop-\$1;
#X connect 1 0 3 0;
#X connect 3 0 4 0;
#X connect 3 1 0 0;
#X restore 660 399 pd stop-tape-and-delete;
#X msg 660 369 0 \, 1 \, 2 \, 3 \, 4 \, 5;
#X obj 660 313 r airport-notes-stop-all-\$1;
#X obj 640 242 s airport-notes-stop-all-\$1;
#X obj 360 210 note-tracker \$1 airport-notes-\$1;
#X obj 440 290 tape \$1 0;
#X obj 450 321 tape \$1 1;
#X obj 460 352 tape \$1 2;
#X obj 470 383 tape \$1 3;
#X obj 480 416 tape \$1 4;
#X obj 490 447 tape \$1 5;
#X obj 510 242 s tape-stop-\$1;
#X connect 0 0 8 0;
#X connect 0 0 19 0;
#X connect 16 0 15 0;
#X connect 17 0 16 0;
#X connect 19 0 14 0;
#X connect 19 1 26 0;
#X connect 19 2 18 0;
#X connect 20 0 8 0;
#X connect 21 0 8 0;
#X connect 22 0 8 0;
#X connect 23 0 8 0;
#X connect 24 0 8 0;
#X connect 25 0 8 0;
