#N struct text float x float y text t;
#N canvas -193 58 1175 703 12;
#X obj 315 17 r notesIn-\$1;
#X obj 36 17 inlet~ inL-\$1;
#X obj 146 17 inlet~ inR-\$1;
#X obj 485 16 r auxIn-\$1;
#X obj 584 16 r expIn-\$1;
#X obj 584 41 r fsIn-\$1;
#X obj 702 16 r ctrlIn-\$1;
#X obj 702 42 s ctrlOut-\$1;
#X obj 40 630 outlet~ outL-\$1;
#X obj 179 630 outlet~ outR-\$1;
#X obj 890 30 r arp_select-\$1;
#X obj 890 110 r global-bpm;
#X obj 890 70 r beat-clock;
#N canvas 397 189 728 535 set-up-tape 0;
#X text 100 30 Pitch \, velocity \, note duration \, tape duration
\, tape number (starts from 0).;
#X obj 30 30 inlet;
#X obj 30 299 s;
#X obj 30 59 t a a;
#X obj 62 119 t a b;
#X obj 94 153 symbol \$1;
#X obj 63 190 list append;
#X msg 63 230 symbol tape-\$5-\$6;
#X text 160 190 The pattern id has been added at the end \, in 6th
position;
#X connect 1 0 3 0;
#X connect 3 0 2 0;
#X connect 3 1 4 0;
#X connect 4 0 6 0;
#X connect 4 1 5 0;
#X connect 5 0 6 1;
#X connect 6 0 7 0;
#X connect 7 0 2 1;
#X restore 360 242 pd set-up-tape;
#N canvas 484 344 554 226 stop-tape-and-delete 0;
#X obj 102 99 s note-tracker-delete-tape-\$1;
#X obj 70 40 inlet;
#X text 120 40 Tape number to stop and delete from tracker;
#X obj 70 70 t f f;
#X obj 70 126 s tape-stop-\$1;
#X connect 1 0 3 0;
#X connect 3 0 4 0;
#X connect 3 1 0 0;
#X restore 660 399 pd stop-tape-and-delete;
#X msg 660 369 0 \, 1 \, 2 \, 3 \, 4 \, 5;
#X obj 660 313 r airport-notes-stop-all-\$1;
#X obj 640 242 s airport-notes-stop-all-\$1;
#X obj 360 210 note-tracker \$1 airport-notes-\$1;
#X obj 440 290 tape \$1 0;
#X obj 450 321 tape \$1 1;
#X obj 460 352 tape \$1 2;
#X obj 470 383 tape \$1 3;
#X obj 480 416 tape \$1 4;
#X obj 490 447 tape \$1 5;
#X obj 510 242 s tape-stop-\$1;
#X obj 922 314 r loadbang-\$1;
#X msg 922 370 4 7;
#X obj 922 400 s tape-duration-init-\$1;
#X text 960 370 Min and max tape range;
#X obj 350 630 s notesOut-\$1;
#N canvas 176 40 819 730 filter-on-off-doubles 1;
#X obj 76 32 inlet;
#X text 176 32 Receive note and velocity pairs. For any note \, insist
on alternate note-on and note-offs. Any violations will just be dropped.
;
#X obj 480 152 text define filter-\$1;
#X text 176 122 \$1 is the pattern id.;
#X obj 332 909 outlet;
#X obj 322 858 list store;
#X obj 264 820 r filter-output-\$1;
#X obj 76 131 t a a;
#X obj 76 190 unpack f f;
#X obj 459 243 > 0;
#X obj 76 269 text search filter-\$1;
#X obj 76 298 select -1;
#X scalar text 76 277 \; \;;
#X scalar text 76 277 \; \;;
#X scalar text 76 277 \; \;;
#X obj 170 170 s filter-store-input-\$1;
#X obj 414 820 r filter-store-input-\$1;
#X obj 108 548 list store;
#X obj 175 410 r filter-store-input-\$1;
#X obj 76 414 t b b;
#X obj 76 623 s filter-output-\$1;
#X msg 530 110 clear;
#X text 590 110 Click when testing;
#X text 89 377 Not found this note before;
#X obj 108 587 text set filter-\$1 1e+09;
#X obj 440 430 text get filter-\$1 1;
#X obj 440 500 ==;
#X text 499 243 On/off of this note;
#X text 220 310 Have found this note before \, on this line;
#X obj 440 360 t f f;
#X obj 480 470 r filter-this-state-\$1;
#X obj 459 273 s filter-this-state-\$1;
#X obj 440 568 t b b;
#X text 500 570 They're different \, so allow this;
#X obj 440 529 select 0;
#X text 600 430 Get prev on/off value;
#X obj 472 392 s filter-this-line-num-\$1;
#X obj 524 680 r filter-this-line-num-\$1;
#X obj 472 650 v filter-this-state-\$1;
#X text 482 609 Store this state;
#X obj 442 770 s filter-output-\$1;
#X text 590 770 Send the original value out;
#X obj 472 713 text set filter-\$1 99 1;
#X text 657 713 Line num \, field num;
#X obj 175 439 unpack f f;
#X obj 242 468 > 0;
#X obj 175 499 pack f f;
#X connect 0 0 7 0;
#X connect 5 0 4 0;
#X connect 6 0 5 0;
#X connect 7 0 8 0;
#X connect 7 1 15 0;
#X connect 8 0 10 0;
#X connect 8 1 9 0;
#X connect 9 0 31 0;
#X connect 10 0 11 0;
#X connect 11 0 19 0;
#X connect 11 1 29 0;
#X connect 16 0 5 1;
#X connect 17 0 24 0;
#X connect 18 0 44 0;
#X connect 19 0 20 0;
#X connect 19 1 17 0;
#X connect 21 0 2 0;
#X connect 25 0 26 0;
#X connect 26 0 34 0;
#X connect 29 0 25 0;
#X connect 29 1 36 0;
#X connect 30 0 26 1;
#X connect 32 0 40 0;
#X connect 32 1 38 0;
#X connect 34 0 32 0;
#X connect 37 0 42 1;
#X connect 38 0 42 0;
#X connect 44 0 46 0;
#X connect 44 1 45 0;
#X connect 45 0 46 1;
#X connect 46 0 17 1;
#X restore 350 590 pd filter-on-off-doubles;
#X connect 0 0 18 0;
#X connect 0 0 31 0;
#X connect 15 0 14 0;
#X connect 16 0 15 0;
#X connect 18 0 13 0;
#X connect 18 1 25 0;
#X connect 18 2 17 0;
#X connect 19 0 31 0;
#X connect 20 0 31 0;
#X connect 21 0 31 0;
#X connect 22 0 31 0;
#X connect 23 0 31 0;
#X connect 24 0 31 0;
#X connect 26 0 27 0;
#X connect 27 0 28 0;
#X connect 31 0 30 0;
