#N canvas 815 -1009 371 328 10;
#X obj 90 181 makenote;
#X obj 90 210 pack f f;
#X obj 90 30 inlet;
#X text 150 30 Pitch;
#X obj 90 239 s notesOut-p3;
#X msg 148 142 500;
#X msg 109 142 100;
#X obj 90 101 t f b b;
#X connect 0 0 1 0;
#X connect 0 1 1 1;
#X connect 1 0 4 0;
#X connect 2 0 7 0;
#X connect 5 0 0 2;
#X connect 6 0 0 1;
#X connect 7 0 0 0;
#X connect 7 1 6 0;
#X connect 7 2 5 0;
