#N canvas 536 306 657 553 10;
#X obj 42 217 play-pitch;
#X obj 192 202 delay 300;
#X obj 356 207 delay 600;
#X obj 192 252 play-pitch;
#X obj 352 267 play-pitch;
#X obj 92 87 t b b b;
#X obj 146 21 inlet;
#X obj 42 192 expr ($f2 % 19) + 50;
#X obj 192 227 expr ($f2 % 17) + 50;
#X obj 352 242 expr ($f2 % 13) + 50;
#X obj 146 46 t b f;
#X connect 1 0 8 0;
#X connect 2 0 9 0;
#X connect 5 0 7 0;
#X connect 5 1 1 0;
#X connect 5 2 2 0;
#X connect 6 0 10 0;
#X connect 7 0 0 0;
#X connect 8 0 3 0;
#X connect 9 0 4 0;
#X connect 10 0 5 0;
#X connect 10 1 7 1;
#X connect 10 1 8 1;
#X connect 10 1 9 1;
