#N canvas 229 72 1022 830 10;
#X obj 39 139 r beat-clock;
#X obj 309 175 unpack f f f f f;
#X obj 310 297 pack f f;
#X text 189 675 Pitch \, velocity;
#X msg 312 676 set \$1 \$2;
#X msg 332 715 65 70;
#X obj 312 626 t a a;
#X text 643 676 Pitch \, note-off;
#X msg 572 676 set \$1 0;
#X msg 552 715 65 0;
#X obj 498 353 f;
#X text 543 353 Tape count \, initial value note duration;
#X obj 498 385 + 1;
#X obj 552 563 ==;
#X obj 552 621 t b;
#X obj 437 766 outlet;
#X obj 39 168 bng 15 250 50 0 empty empty empty 17 7 0 10 #fcfcfc #000000
#000000;
#X obj 498 414 %;
#X obj 498 454 t f f f;
#X obj 479 508 sel 0;
#X obj 552 592 sel 1;
#X obj 39 282 spigot 0;
#X text 329 66 Receive pitch \, volume \, note duration \, tape duration
\, tape number (starts at 0).;
#X text 330 110 We initialise this at the point of note off (beat count
is the note duration).;
#X obj 239 66 r tape-\$1-\$2;
#X text 880 57 Tape number to stop;
#X obj 759 56 r tape-\$1-stop;
#X obj 759 84 select \$2;
#X text 830 85 Make sure it's our tape;
#X text 330 20 \$2 is tape number (starts at 0) \, \$1 is pattern id.
;
#X obj 786 182 s tape-\$1-\$2-spigot;
#X obj 759 209 s tape-\$1-\$2-note-off;
#X obj 139 191 s tape-\$1-\$2-spigot;
#X obj 92 244 r tape-\$1-\$2-spigot;
#X obj 39 322 s tape-\$1-\$2-count-left;
#X obj 427 212 s tape-\$1-\$2-tdur;
#X obj 417 240 s tape-\$1-\$2-ndur;
#X obj 389 297 r tape-\$1-\$2-count-left;
#X obj 563 296 r tape-\$1-\$2-count-right;
#X obj 549 385 r tape-\$1-\$2-tdur;
#X obj 573 486 s tape-\$1-\$2-count-right;
#X obj 573 523 r tape-\$1-\$2-ndur;
#X obj 399 676 r tape-\$1-\$2-note-off;
#X msg 786 156 0;
#X obj 759 115 t b b;
#X msg 139 165 1;
#X obj 239 120 t b a;
#X connect 0 0 16 0;
#X connect 1 0 2 0;
#X connect 1 1 2 1;
#X connect 1 2 36 0;
#X connect 1 3 35 0;
#X connect 2 0 6 0;
#X connect 4 0 5 0;
#X connect 5 0 15 0;
#X connect 6 0 4 0;
#X connect 6 1 8 0;
#X connect 8 0 9 0;
#X connect 9 0 15 0;
#X connect 10 0 12 0;
#X connect 12 0 17 0;
#X connect 13 0 20 0;
#X connect 14 0 9 0;
#X connect 16 0 21 0;
#X connect 17 0 18 0;
#X connect 18 0 19 0;
#X connect 18 1 13 0;
#X connect 18 2 40 0;
#X connect 19 0 5 0;
#X connect 20 0 14 0;
#X connect 21 0 34 0;
#X connect 24 0 46 0;
#X connect 26 0 27 0;
#X connect 27 0 44 0;
#X connect 33 0 21 1;
#X connect 37 0 10 0;
#X connect 38 0 10 1;
#X connect 39 0 17 1;
#X connect 41 0 13 1;
#X connect 42 0 9 0;
#X connect 43 0 30 0;
#X connect 44 0 31 0;
#X connect 44 1 43 0;
#X connect 45 0 32 0;
#X connect 46 0 45 0;
#X connect 46 1 1 0;
