#N canvas 679 -978 1007 818 10;
#X obj 39 139 r beat-clock;
#X obj 309 175 unpack f f f f f;
#X obj 310 297 pack f f;
#X text 189 675 Pitch \, velocity;
#X msg 312 676 set \$1 \$2;
#X msg 332 715 71 60;
#X obj 312 626 t a a;
#X text 643 676 Pitch \, note-off;
#X msg 572 676 set \$1 0;
#X msg 552 715 71 0;
#X obj 498 353 f;
#X text 543 353 Tape count \, initial value note duration;
#X obj 498 385 + 1;
#X obj 552 563 ==;
#X obj 552 621 t b;
#X obj 437 766 outlet;
#X obj 39 168 bng 15 250 50 0 empty empty empty 17 7 0 10 #fcfcfc #000000
#000000;
#X obj 498 414 %;
#X obj 498 454 t f f f;
#X obj 479 508 sel 0;
#X obj 552 592 sel 1;
#X obj 39 282 spigot 0;
#X obj 239 120 t 1 a;
#X obj 759 105 t 0 b;
#X text 889 66 Bang to stop;
#X text 329 66 Receive pitch \, volume \, note duration \, tape duration
\, tape number (starts at 0).;
#X text 330 110 We initialise this at the point of note off (beat count
is the note duration).;
#X obj 427 212 s tape-\$0-\$1-tdur;
#X obj 239 66 r tape-\$2-\$1;
#X text 330 20 \$1 is tape number (starts at 0) \, \$2 is parent app
id.;
#X obj 139 186 s tape-\$0-\$1-spigot;
#X obj 92 244 r tape-\$0-\$1-spigot;
#X obj 39 322 s tape-\$0-\$1-count-left;
#X obj 389 297 r tape-\$0-\$1-count-left;
#X obj 759 66 r tape-\$2-\$1-stop;
#X obj 791 136 s tape-\$0-\$1-note-off;
#X obj 759 166 s tape-\$0-\$1-spigot;
#X obj 563 296 r tape-\$0-\$1-count-right;
#X obj 549 385 r tape-\$0-\$1-tdur;
#X obj 573 486 s tape-\$0-\$1-count-right;
#X obj 573 523 r tape-\$0-\$1-ndur;
#X obj 399 676 r tape-\$0-\$1-note-off;
#X obj 417 240 s tape-\$0-\$1-ndur;
#X connect 0 0 16 0;
#X connect 1 0 2 0;
#X connect 1 1 2 1;
#X connect 1 2 42 0;
#X connect 1 3 27 0;
#X connect 2 0 6 0;
#X connect 4 0 5 0;
#X connect 5 0 15 0;
#X connect 6 0 4 0;
#X connect 6 1 8 0;
#X connect 8 0 9 0;
#X connect 9 0 15 0;
#X connect 10 0 12 0;
#X connect 12 0 17 0;
#X connect 13 0 20 0;
#X connect 14 0 9 0;
#X connect 16 0 21 0;
#X connect 17 0 18 0;
#X connect 18 0 19 0;
#X connect 18 1 13 0;
#X connect 18 2 39 0;
#X connect 19 0 5 0;
#X connect 20 0 14 0;
#X connect 21 0 32 0;
#X connect 22 0 30 0;
#X connect 22 1 1 0;
#X connect 23 0 36 0;
#X connect 23 1 35 0;
#X connect 28 0 22 0;
#X connect 31 0 21 1;
#X connect 33 0 10 0;
#X connect 34 0 23 0;
#X connect 37 0 10 1;
#X connect 38 0 17 1;
#X connect 40 0 13 1;
#X connect 41 0 9 0;
