#N canvas 164 28 1194 857 10;
#X obj 420 70 v global-bpm;
#X obj 420 95 v beat-clock;
#N canvas 564 108 814 718 run-clocks 0;
#X text 10 44 beat clock 0 to 359;
#X text 290 44 Set global bpm;
#X text 460 84 beat_interval_s = 1 / beats_per_s;
#X text 460 109 beat_per_s = bpm / 60;
#X text 460 134 beat_interval_ms = beat_interval_s * 1000;
#X text 460 159 Tharefore... beat_interval_ms = 1 / beats_per_s * 1000
;
#X text 460 184 = 1 / (bpm/60) * 1000;
#X obj 290 138 expr 60 / $f1 * 1000;
#X floatatom 330 163 5 0 0 0 - - -, f 5;
#X obj 290 186 s beat_int_ms;
#X obj 81 120 r beat_int_ms;
#X obj 24 207 bng 15 250 50 0 empty empty empty 17 7 0 10 #fcfcfc #000000
#000000;
#X obj 81 149 t f f;
#X obj 100 264 metro 1000;
#X obj 24 182 metro 1000;
#X obj 100 372 f 0;
#X obj 154 383 + 1;
#X obj 100 400 % 360;
#X floatatom 191 452 5 0 0 0 - - -, f 5;
#X obj 157 230 / 360;
#X floatatom 180 264 10 0 0 0 - - -, f 10;
#X obj 100 452 s beat-clock;
#X obj 120 319 f 0;
#X obj 290 100 r global-bpm;
#X obj 24 87 r ext-init;
#X obj 71 230 r ext-init;
#X obj 120 294 r ext-init;
#X connect 7 0 8 0;
#X connect 7 0 9 0;
#X connect 10 0 12 0;
#X connect 12 0 14 1;
#X connect 12 1 19 0;
#X connect 13 0 15 0;
#X connect 14 0 11 0;
#X connect 15 0 17 0;
#X connect 16 0 15 1;
#X connect 17 0 16 0;
#X connect 17 0 21 0;
#X connect 17 0 18 0;
#X connect 19 0 13 1;
#X connect 19 0 20 0;
#X connect 22 0 15 1;
#X connect 23 0 7 0;
#X connect 24 0 14 0;
#X connect 25 0 13 0;
#X connect 26 0 22 0;
#X restore 420 40 pd run-clocks;
#X floatatom 240 183 5 1 270 0 - - -, f 5;
#X obj 240 210 s global-bpm;
#X obj 350 130 r beat-clock;
#X obj 350 155 select 0;
#X obj 350 180 bng 15 250 50 0 empty empty empty 17 7 0 10 #fcfcfc
#000000 #000000;
#N canvas 360 133 801 647 synth 0;
#X text 50 50 Just make a sound;
#X obj 76 312 unpack f f;
#X obj 76 407 osc~;
#X obj 76 452 *~;
#X obj 117 413 / 127;
#X obj 76 374 mtof;
#X obj 336 567 dac~;
#X obj 86 102 inlet;
#X obj 128 184 pack f f f;
#X obj 128 209 route 1 2 3 4;
#X obj 128 159 poly 4;
#X obj 230 310 unpack f f;
#X obj 230 405 osc~;
#X obj 230 450 *~;
#X obj 271 411 / 127;
#X obj 230 372 mtof;
#X obj 370 310 unpack f f;
#X obj 370 405 osc~;
#X obj 370 450 *~;
#X obj 411 411 / 127;
#X obj 370 372 mtof;
#X obj 540 310 unpack f f;
#X obj 540 405 osc~;
#X obj 540 450 *~;
#X obj 581 411 / 127;
#X obj 540 372 mtof;
#X connect 1 0 5 0;
#X connect 1 1 4 0;
#X connect 2 0 3 0;
#X connect 3 0 6 0;
#X connect 3 0 6 1;
#X connect 4 0 3 1;
#X connect 5 0 2 0;
#X connect 7 0 10 0;
#X connect 8 0 9 0;
#X connect 9 0 1 0;
#X connect 9 1 11 0;
#X connect 9 2 16 0;
#X connect 9 3 21 0;
#X connect 10 0 8 0;
#X connect 10 1 8 1;
#X connect 10 2 8 2;
#X connect 11 0 15 0;
#X connect 11 1 14 0;
#X connect 12 0 13 0;
#X connect 13 0 6 0;
#X connect 13 0 6 1;
#X connect 14 0 13 1;
#X connect 15 0 12 0;
#X connect 16 0 20 0;
#X connect 16 1 19 0;
#X connect 17 0 18 0;
#X connect 18 0 6 0;
#X connect 18 0 6 1;
#X connect 19 0 18 1;
#X connect 20 0 17 0;
#X connect 21 0 25 0;
#X connect 21 1 24 0;
#X connect 22 0 23 0;
#X connect 23 0 6 0;
#X connect 23 0 6 1;
#X connect 24 0 23 1;
#X connect 25 0 22 0;
#X restore 50 448 pd synth;
#X obj 240 155 f 60;
#N canvas 438 203 646 508 play-seq 0;
#X obj 151 69 inlet;
#X text 200 70 symbol of sequence to play;
#X msg 90 123 line 0 \, auto;
#X obj 150 180 makenote;
#X obj 150 210 pack f f;
#X obj 151 94 t b s;
#X obj 150 153 text sequence dummy -w 1;
#X obj 150 238 s notesIn-p1;
#X connect 0 0 5 0;
#X connect 2 0 6 0;
#X connect 3 0 4 0;
#X connect 3 1 4 1;
#X connect 4 0 7 0;
#X connect 5 0 2 0;
#X connect 5 1 6 1;
#X connect 6 0 3 0;
#X restore 580 253 pd play-seq;
#X msg 580 206 symbol seq1;
#X obj 600 229 text define -k seq1;
#A set 0 69 100 1000 \; 1300 53 60 500;
#N canvas 438 203 646 508 play-seq 0;
#X obj 151 69 inlet;
#X text 200 70 symbol of sequence to play;
#X msg 90 123 line 0 \, auto;
#X obj 150 180 makenote;
#X obj 150 210 pack f f;
#X obj 151 94 t b s;
#X obj 150 153 text sequence dummy -w 1;
#X obj 150 238 s notesIn-p1;
#X connect 0 0 5 0;
#X connect 2 0 6 0;
#X connect 3 0 4 0;
#X connect 3 1 4 1;
#X connect 4 0 7 0;
#X connect 5 0 2 0;
#X connect 5 1 6 1;
#X connect 6 0 3 0;
#X restore 860 256 pd play-seq;
#X obj 880 230 text define -k seven-notes;
#A set 0 60 75 1000 \; 1000 61 75 1000 \; 1000 62 75 1000 \; 1000 63
75 1000 \; 1000 64 75 1000 \; 1000 65 75 1000 \; 1000 66 75 1000 \;
;
#X msg 860 206 symbol seven-notes;
#N canvas 438 203 646 508 play-seq 0;
#X obj 151 69 inlet;
#X text 200 70 symbol of sequence to play;
#X msg 90 123 line 0 \, auto;
#X obj 150 180 makenote;
#X obj 150 210 pack f f;
#X obj 151 94 t b s;
#X obj 150 153 text sequence dummy -w 1;
#X obj 150 238 s notesIn-p1;
#X connect 0 0 5 0;
#X connect 2 0 6 0;
#X connect 3 0 4 0;
#X connect 3 1 4 1;
#X connect 4 0 7 0;
#X connect 5 0 2 0;
#X connect 5 1 6 1;
#X connect 6 0 3 0;
#X restore 860 358 pd play-seq;
#X msg 860 308 symbol fourteen-notes-together;
#X obj 880 332 text define -k fourteen-notes-together;
#A set 0 60 70 1000 \; 0 61 70 1000 \; 0 62 70 1000 \; 0 63 70 1000
\; 0 64 70 1000 \; 0 65 70 1000 \; 0 66 70 1000 \; 0 67 70 1000 \;
0 68 70 1000 \; 0 69 70 1000 \; 0 70 70 1000 \; 0 71 70 1000 \; 0 72
70 1000 \; 0 63 70 1000 \;;
#N canvas 438 203 646 508 play-seq 0;
#X obj 151 69 inlet;
#X text 200 70 symbol of sequence to play;
#X msg 90 123 line 0 \, auto;
#X obj 150 180 makenote;
#X obj 150 210 pack f f;
#X obj 151 94 t b s;
#X obj 150 153 text sequence dummy -w 1;
#X obj 150 238 s notesIn-p1;
#X connect 0 0 5 0;
#X connect 2 0 6 0;
#X connect 3 0 4 0;
#X connect 3 1 4 1;
#X connect 4 0 7 0;
#X connect 5 0 2 0;
#X connect 5 1 6 1;
#X connect 6 0 3 0;
#X restore 580 488 pd play-seq;
#X obj 600 463 text define -k seven-notes-overlapping;
#A set 0 60 70 1000 \; 100 61 70 1000 \; 100 62 70 1000 \; 100 63 70
1000 \; 100 64 70 1000 \; 100 65 70 1000 \; 100 60 70 1000 \;;
#X msg 580 440 symbol seven-notes-overlapping;
#N canvas 438 203 646 508 play-seq 0;
#X obj 151 69 inlet;
#X text 200 70 symbol of sequence to play;
#X msg 90 123 line 0 \, auto;
#X obj 150 180 makenote;
#X obj 150 210 pack f f;
#X obj 151 94 t b s;
#X obj 150 153 text sequence dummy -w 1;
#X obj 150 238 s notesIn-p1;
#X connect 0 0 5 0;
#X connect 2 0 6 0;
#X connect 3 0 4 0;
#X connect 3 1 4 1;
#X connect 4 0 7 0;
#X connect 5 0 2 0;
#X connect 5 1 6 1;
#X connect 6 0 3 0;
#X restore 580 355 pd play-seq;
#X text 860 176 To test that tapes are reused;
#N canvas 437 202 648 510 play-seq 0;
#X obj 151 69 inlet;
#X text 200 70 symbol of sequence to play;
#X msg 90 123 line 0 \, auto;
#X obj 150 180 makenote;
#X obj 150 210 pack f f;
#X obj 151 94 t b s;
#X obj 150 153 text sequence dummy -w 1;
#X obj 150 238 s notesIn-p1;
#X connect 0 0 5 0;
#X connect 2 0 6 0;
#X connect 3 0 4 0;
#X connect 3 1 4 1;
#X connect 4 0 7 0;
#X connect 5 0 2 0;
#X connect 5 1 6 1;
#X connect 6 0 3 0;
#X restore 580 630 pd play-seq;
#X obj 600 605 text define -k slow-then-quick;
#A set 0 63 70 1000 \; 1500 63 70 120;
#X msg 580 578 symbol slow-then-quick;
#X text 580 178 A simple two-note sequence;
#X text 580 690 Double quick click to stop three notes;
#N canvas 436 201 650 512 play-seq 0;
#X obj 151 69 inlet;
#X text 200 70 symbol of sequence to play;
#X msg 90 123 line 0 \, auto;
#X obj 150 180 makenote;
#X obj 150 210 pack f f;
#X obj 151 94 t b s;
#X obj 150 153 text sequence dummy -w 1;
#X obj 150 238 s notesIn-p1;
#X connect 0 0 5 0;
#X connect 2 0 6 0;
#X connect 3 0 4 0;
#X connect 3 1 4 1;
#X connect 4 0 7 0;
#X connect 5 0 2 0;
#X connect 5 1 6 1;
#X connect 6 0 3 0;
#X restore 580 772 pd play-seq;
#X msg 580 720 symbol stop-three-notes;
#X obj 600 745 text define -k stop-three-notes;
#A set 0 60 70 1000 \; 1500 62 70 1000 \; 1500 64 70 1000 \; 1500 60
70 120 \; 100 62 70 120;
#X text 620 30 Data in these tests are: wait (ms) \, midi note \, vel
\, duration;
#X obj 600 330 text define -k same-two-notes-together;
#A set 0 60 75 1000 \; 0 60 75 1000 \;;
#X msg 580 307 symbol same-two-notes-together;
#N canvas 437 202 648 510 play-seq 0;
#X obj 151 69 inlet;
#X text 200 70 symbol of sequence to play;
#X msg 90 123 line 0 \, auto;
#X obj 150 180 makenote;
#X obj 150 210 pack f f;
#X obj 151 94 t b s;
#X obj 150 153 text sequence dummy -w 1;
#X obj 150 238 s notesIn-p1;
#X connect 0 0 5 0;
#X connect 2 0 6 0;
#X connect 3 0 4 0;
#X connect 3 1 4 1;
#X connect 4 0 7 0;
#X connect 5 0 2 0;
#X connect 5 1 6 1;
#X connect 6 0 3 0;
#X restore 860 770 pd play-seq;
#X obj 880 745 text define -k any-double-click;
#A set 0 60 70 1000 \; 1500 62 70 1000 \; 1500 64 70 1000 \; 1500 66
70 120 \; 100 68 70 120;
#X msg 860 720 symbol any-double-click;
#X text 860 690 Double quick click anything to stop three notes;
#X obj 620 60 bng 15 250 50 0 empty empty empty 17 7 0 10 #fcfcfc #000000
#000000;
#X text 649 60 Bang to stop tapes (when testing);
#X text 827 109 It's ...-1 because we're assuming it's pattern 1;
#N canvas 437 202 648 510 play-seq 0;
#X obj 151 69 inlet;
#X text 200 70 symbol of sequence to play;
#X msg 90 123 line 0 \, auto;
#X obj 150 180 makenote;
#X obj 150 210 pack f f;
#X obj 151 94 t b s;
#X obj 150 153 text sequence dummy -w 1;
#X obj 150 238 s notesIn-p1;
#X connect 0 0 5 0;
#X connect 2 0 6 0;
#X connect 3 0 4 0;
#X connect 3 1 4 1;
#X connect 4 0 7 0;
#X connect 5 0 2 0;
#X connect 5 1 6 1;
#X connect 6 0 3 0;
#X restore 860 630 pd play-seq;
#X text 580 547 The quick note should stop the same one;
#X text 860 548 The quick note should stop only the same one;
#X obj 880 604 text define -k stop-just-one;
#A set 0 58 70 800 \; 1000 70 70 1000 \; 4000 58 70 120;
#X msg 860 578 symbol stop-just-one;
#X text 160 370 Our module in slot 1 \, sends to notesOut-\$1;
#X text 60 261 For outside our module;
#X text 70 200 For our module;
#X obj 50 240 s ext-init;
#X obj 240 128 r ext-init;
#X text 50 340 Only the pattern module numbered 1 is used;
#X obj 50 370 module p1;
#X obj 50 410 r notesOut-p1;
#X obj 647 109 s airport-notes-stop-all-p1;
#X obj 70 176 s loadbang-p1;
#N canvas 438 203 646 508 play-seq 0;
#X obj 151 69 inlet;
#X text 200 70 symbol of sequence to play;
#X msg 90 123 line 0 \, auto;
#X obj 150 180 makenote;
#X obj 150 210 pack f f;
#X obj 151 94 t b s;
#X obj 150 153 text sequence dummy -w 1;
#X obj 150 238 s notesIn-p1;
#X connect 0 0 5 0;
#X connect 2 0 6 0;
#X connect 3 0 4 0;
#X connect 3 1 4 1;
#X connect 4 0 7 0;
#X connect 5 0 2 0;
#X connect 5 1 6 1;
#X connect 6 0 3 0;
#X restore 580 1040 pd play-seq;
#X obj 600 1015 text define -k repeat-evenly;
#A set 0 60 70 500 \;;
#X msg 580 992 symbol repeat-evenly;
#X obj 50 130 t b;
#X obj 50 64 loadbang;
#X obj 110 64 r test-loadbang;
#X obj 607 955 s tape-duration-init-p1;
#X msg 607 930 7 7;
#X obj 580 870 bng 15 250 50 0 empty empty empty 17 7 0 10 #fcfcfc
#000000 #000000;
#X text 580 830 Regression: First repeat should be evenly spaced. Problem
was audible about 50% of the time.;
#X text 648 930 Make tape length long;
#X obj 620 83 t b b;
#X obj 620 132 s test-loadbang;
#X obj 580 893 t b b;
#X text 620 870 Remember to reset the state after this test.;
#X text 580 410 Regression: Was the source of a bug;
#N canvas 438 203 646 508 play-seq 0;
#X obj 151 69 inlet;
#X text 200 70 symbol of sequence to play;
#X msg 90 123 line 0 \, auto;
#X obj 150 180 makenote;
#X obj 150 210 pack f f;
#X obj 151 94 t b s;
#X obj 150 153 text sequence dummy -w 1;
#X obj 150 238 s notesIn-p1;
#X connect 0 0 5 0;
#X connect 2 0 6 0;
#X connect 3 0 4 0;
#X connect 3 1 4 1;
#X connect 4 0 7 0;
#X connect 5 0 2 0;
#X connect 5 1 6 1;
#X connect 6 0 3 0;
#X restore 860 488 pd play-seq;
#X text 860 410 Regression: Notes played together should separate;
#X msg 860 440 symbol two-notes-together;
#X obj 880 463 text define -k two-notes-together;
#A set 0 60 70 700 \; 0 64 70 700;
#X connect 3 0 4 0;
#X connect 5 0 6 0;
#X connect 6 0 7 0;
#X connect 9 0 3 0;
#X connect 11 0 10 0;
#X connect 15 0 13 0;
#X connect 17 0 16 0;
#X connect 21 0 19 0;
#X connect 26 0 24 0;
#X connect 30 0 29 0;
#X connect 34 0 22 0;
#X connect 37 0 35 0;
#X connect 39 0 68 0;
#X connect 46 0 42 0;
#X connect 51 0 9 0;
#X connect 54 0 8 0;
#X connect 59 0 57 0;
#X connect 60 0 50 0;
#X connect 60 0 56 0;
#X connect 61 0 60 0;
#X connect 62 0 60 0;
#X connect 64 0 63 0;
#X connect 65 0 70 0;
#X connect 68 0 69 0;
#X connect 68 1 55 0;
#X connect 70 0 59 0;
#X connect 70 1 64 0;
#X connect 75 0 73 0;
